<?xml version="1.0" encoding="UTF-8"?>
<!DOCTYPE svg PUBLIC "-//W3C//DTD SVG 1.1//EN" "http://www.w3.org/Graphics/SVG/1.1/DTD/svg11.dtd">
<svg xmlns="http://www.w3.org/2000/svg" version="1.1" width="249px" height="252px" style="shape-rendering:geometricPrecision; text-rendering:geometricPrecision; image-rendering:optimizeQuality; fill-rule:evenodd; clip-rule:evenodd" xmlns:xlink="http://www.w3.org/1999/xlink">
<g><path style="opacity:1" fill="#fefefe" d="M 35.5,-0.5 C 93.5,-0.5 151.5,-0.5 209.5,-0.5C 228.141,6.80762 241.141,19.8076 248.5,38.5C 248.5,96.5 248.5,154.5 248.5,212.5C 241.141,231.192 228.141,244.192 209.5,251.5C 151.5,251.5 93.5,251.5 35.5,251.5C 19.4026,245.4 7.40265,234.734 -0.5,219.5C -0.5,156.833 -0.5,94.1667 -0.5,31.5C 7.40265,16.2662 19.4026,5.59953 35.5,-0.5 Z"/></g>
<g><path style="opacity:1" fill="#6d409c" d="M 115.5,12.5 C 121.577,12.1959 127.577,12.6959 133.5,14C 159.5,29.3333 185.5,44.6667 211.5,60C 215.877,64.043 219.044,68.8763 221,74.5C 221.667,107.5 221.667,140.5 221,173.5C 219.416,178.5 216.916,183 213.5,187C 186.156,204.343 158.156,220.676 129.5,236C 122.129,237.31 115.129,236.31 108.5,233C 84.1667,218.667 59.8333,204.333 35.5,190C 29.4944,185.15 25.6611,178.983 24,171.5C 23.3333,139.833 23.3333,108.167 24,76.5C 25.4428,69.119 29.2762,63.2857 35.5,59C 62.098,43.2072 88.7646,27.7072 115.5,12.5 Z"/></g>
<g><path style="opacity:1" fill="#f6f3f9" d="M 104.5,120.5 C 104.987,121.473 105.487,122.473 106,123.5C 106.5,111.505 106.667,99.5046 106.5,87.5C 108.5,87.5 110.5,87.5 112.5,87.5C 112.5,102.5 112.5,117.5 112.5,132.5C 109.315,132.98 106.481,132.314 104,130.5C 98.9733,121.759 93.4733,113.425 87.5,105.5C 86.0266,102.553 84.5266,99.5531 83,96.5C 82.5001,108.495 82.3335,120.495 82.5,132.5C 80.5,132.5 78.5,132.5 76.5,132.5C 76.5,117.5 76.5,102.5 76.5,87.5C 79.6852,87.0196 82.5185,87.6863 85,89.5C 92.011,99.5243 98.511,109.858 104.5,120.5 Z"/></g>
<g><path style="opacity:1" fill="#bfadd2" d="M 106.5,87.5 C 106.667,99.5046 106.5,111.505 106,123.5C 105.487,122.473 104.987,121.473 104.5,120.5C 105.167,109.5 105.833,98.5 106.5,87.5 Z"/></g>
<g><path style="opacity:1" fill="#f5f3f8" d="M 144.5,106.5 C 144.5,108.167 144.5,109.833 144.5,111.5C 139.167,111.5 133.833,111.5 128.5,111.5C 128.5,116.833 128.5,122.167 128.5,127.5C 134.5,127.5 140.5,127.5 146.5,127.5C 146.5,129.167 146.5,130.833 146.5,132.5C 138.167,132.5 129.833,132.5 121.5,132.5C 121.5,117.5 121.5,102.5 121.5,87.5C 129.833,87.5 138.167,87.5 146.5,87.5C 146.5,89.1667 146.5,90.8333 146.5,92.5C 140.5,92.5 134.5,92.5 128.5,92.5C 128.5,97.1667 128.5,101.833 128.5,106.5C 133.833,106.5 139.167,106.5 144.5,106.5 Z"/></g>
<g><path style="opacity:1" fill="#f8f6fa" d="M 150.5,87.5 C 160.833,87.5 171.167,87.5 181.5,87.5C 181.5,89.1667 181.5,90.8333 181.5,92.5C 177.5,92.5 173.5,92.5 169.5,92.5C 169.5,105.833 169.5,119.167 169.5,132.5C 167.167,132.5 164.833,132.5 162.5,132.5C 162.5,119.167 162.5,105.833 162.5,92.5C 158.5,92.5 154.5,92.5 150.5,92.5C 150.5,90.8333 150.5,89.1667 150.5,87.5 Z"/></g>
<g><path style="opacity:1" fill="#6e4e93" d="M 87.5,105.5 C 86.5416,105.047 85.7083,104.381 85,103.5C 84.6667,103.833 84.3333,104.167 84,104.5C 83.8299,114.009 83.3299,123.342 82.5,132.5C 82.3335,120.495 82.5001,108.495 83,96.5C 84.5266,99.5531 86.0266,102.553 87.5,105.5 Z"/></g>
<g><path style="opacity:1" fill="#6e4c97" d="M 144.5,106.5 C 145.161,107.718 145.828,109.051 146.5,110.5C 148.535,111.041 150.535,111.708 152.5,112.5C 144.916,112.694 137.249,112.694 129.5,112.5C 129.5,117.167 129.5,121.833 129.5,126.5C 135.358,126.178 141.025,126.511 146.5,127.5C 140.5,127.5 134.5,127.5 128.5,127.5C 128.5,122.167 128.5,116.833 128.5,111.5C 133.833,111.5 139.167,111.5 144.5,111.5C 144.5,109.833 144.5,108.167 144.5,106.5 Z"/></g>
<g><path style="opacity:1" fill="#f7f4f9" d="M 61.5,126.5 C 67.5548,125.942 68.8881,128.109 65.5,133C 60.7915,133.082 59.4582,130.915 61.5,126.5 Z"/></g>
<g><path style="opacity:1" fill="#f0ecf5" d="M 98.5,142.5 C 101.187,142.336 103.854,142.503 106.5,143C 106.957,143.414 107.291,143.914 107.5,144.5C 98.5136,143.655 94.3469,147.655 95,156.5C 97.118,162.119 100.951,163.786 106.5,161.5C 107.386,162.325 107.719,163.325 107.5,164.5C 94.2735,166.06 89.4401,160.394 93,147.5C 94.7297,145.598 96.563,143.931 98.5,142.5 Z"/></g>
<g><path style="opacity:1" fill="#eeeaf3" d="M 113.5,148.5 C 124.895,149.091 127.562,154.258 121.5,164C 112.229,166.394 108.395,162.894 110,153.5C 110.997,151.677 112.164,150.01 113.5,148.5 Z"/></g>
<g><path style="opacity:1" fill="#f8f6fa" d="M 128.5,164.5 C 127.892,159.056 128.558,154.056 130.5,149.5C 130.435,149.938 130.601,150.272 131,150.5C 132.11,148.963 133.61,148.297 135.5,148.5C 134.756,150.986 133.256,152.986 131,154.5C 131.083,158.311 130.25,161.645 128.5,164.5 Z"/></g>
<g><path style="opacity:1" fill="#ede8f2" d="M 140.5,148.5 C 147.016,148.017 150.349,151.017 150.5,157.5C 146.774,157.177 143.107,157.511 139.5,158.5C 139.919,159.672 140.585,160.672 141.5,161.5C 144.177,162.074 146.843,162.741 149.5,163.5C 139.762,166.92 135.595,163.587 137,153.5C 137.997,151.677 139.164,150.01 140.5,148.5 Z"/></g>
<g><path style="opacity:1" fill="#d1c4df" d="M 130.5,149.5 C 128.558,154.056 127.892,159.056 128.5,164.5C 127.512,159.36 127.179,154.026 127.5,148.5C 128.791,148.263 129.791,148.596 130.5,149.5 Z"/></g>
<g><path style="opacity:1" fill="#6d4797" d="M 146.5,153.5 C 144.393,154.468 142.059,154.802 139.5,154.5C 141.62,151.134 143.953,150.801 146.5,153.5 Z"/></g>
<g><path style="opacity:1" fill="#a38fba" d="M 146.5,153.5 C 147.043,153.56 147.376,153.893 147.5,154.5C 144.691,155.8 142.024,155.8 139.5,154.5C 142.059,154.802 144.393,154.468 146.5,153.5 Z"/></g>
<g><path style="opacity:1" fill="#70469d" d="M 114.5,151.5 C 120.499,151.002 122.666,153.669 121,159.5C 118.333,163.5 115.667,163.5 113,159.5C 112.109,156.502 112.609,153.836 114.5,151.5 Z"/></g>
</svg>
