<?xml version="1.0" encoding="UTF-8"?>
<!DOCTYPE svg PUBLIC "-//W3C//DTD SVG 1.1//EN" "http://www.w3.org/Graphics/SVG/1.1/DTD/svg11.dtd">
<svg xmlns="http://www.w3.org/2000/svg" version="1.1" width="245px" height="249px" style="shape-rendering:geometricPrecision; text-rendering:geometricPrecision; image-rendering:optimizeQuality; fill-rule:evenodd; clip-rule:evenodd" xmlns:xlink="http://www.w3.org/1999/xlink">
<g><path style="opacity:0.994" fill="#fefefe" d="M 10.5,-0.5 C 77.5,-0.5 144.5,-0.5 211.5,-0.5C 213.049,1.40539 214.882,1.73873 217,0.5C 222.179,4.86226 227.346,9.36226 232.5,14C 234.087,14.8624 235.754,15.5291 237.5,16C 239.36,21.0883 241.693,25.9217 244.5,30.5C 244.5,93.1667 244.5,155.833 244.5,218.5C 242.078,220.286 242.078,221.952 244.5,223.5C 244.5,224.5 244.5,225.5 244.5,226.5C 234.486,233.949 225.153,241.282 216.5,248.5C 215.833,248.5 215.167,248.5 214.5,248.5C 214.167,247.167 213.833,247.167 213.5,248.5C 152.167,248.5 90.8333,248.5 29.5,248.5C 16.9843,242.319 6.98432,233.319 -0.5,221.5C -0.5,152.833 -0.5,84.1667 -0.5,15.5C 0.451114,13.882 1.78445,12.5487 3.5,11.5C 4.04117,9.46476 4.70784,7.46476 5.5,5.5C 6.89097,6.64464 8.2243,6.64464 9.5,5.5C 10.3482,3.59136 10.6816,1.59136 10.5,-0.5 Z"/></g>
<g><path style="opacity:1" fill="#8a6eda" d="M 95.5,49.5 C 96.3713,44.549 94.3713,41.8824 89.5,41.5C 89.762,42.9778 89.4287,44.3112 88.5,45.5C 87.1502,44.0499 85.4835,43.3832 83.5,43.5C 83.4013,46.2372 83.7347,48.9039 84.5,51.5C 80.2774,47.4012 80.6107,43.5678 85.5,40C 94.1999,38.2021 97.5332,41.3688 95.5,49.5 Z"/></g>
<g><path style="opacity:1" fill="#886add" d="M 137.5,49.5 C 138.274,45.758 136.941,43.258 133.5,42C 124.755,41.1977 116.088,41.3643 107.5,42.5C 107.577,41.2502 108.244,40.4169 109.5,40C 117.5,39.3333 125.5,39.3333 133.5,40C 135.329,40.2735 136.829,41.1068 138,42.5C 138.796,45.0385 138.629,47.3718 137.5,49.5 Z"/></g>
<g><path style="opacity:1" fill="#8963e8" d="M 137.5,49.5 C 137.167,50.1667 136.833,50.8333 136.5,51.5C 135.391,51.5569 134.391,51.8902 133.5,52.5C 125.804,52.8308 118.138,52.4975 110.5,51.5C 107.923,49.0798 106.923,46.0798 107.5,42.5C 116.088,41.3643 124.755,41.1977 133.5,42C 136.941,43.258 138.274,45.758 137.5,49.5 Z"/></g>
<g><path style="opacity:1" fill="#8b72d5" d="M 107.5,42.5 C 106.923,46.0798 107.923,49.0798 110.5,51.5C 118.138,52.4975 125.804,52.8308 133.5,52.5C 133.5,52.8333 133.5,53.1667 133.5,53.5C 125.493,53.6664 117.493,53.4997 109.5,53C 105.371,49.8748 104.704,46.3748 107.5,42.5 Z"/></g>
<g><path style="opacity:1" fill="#8864e7" d="M 95.5,49.5 C 95.1667,50.5 94.5,51.1667 93.5,51.5C 90.5,50.1667 87.5,50.1667 84.5,51.5C 83.7347,48.9039 83.4013,46.2372 83.5,43.5C 85.4835,43.3832 87.1502,44.0499 88.5,45.5C 89.4287,44.3112 89.762,42.9778 89.5,41.5C 94.3713,41.8824 96.3713,44.549 95.5,49.5 Z"/></g>
<g><path style="opacity:1" fill="#8a6dd5" d="M 93.5,51.5 C 92.5081,53.0265 91.0081,53.6932 89,53.5C 86.9919,53.6932 85.4919,53.0265 84.5,51.5C 87.5,50.1667 90.5,50.1667 93.5,51.5 Z"/></g>
<g><path style="opacity:1" fill="#c0b5db" d="M 136.5,51.5 C 136.027,52.9063 135.027,53.573 133.5,53.5C 133.5,53.1667 133.5,52.8333 133.5,52.5C 134.391,51.8902 135.391,51.5569 136.5,51.5 Z"/></g>
<g><path style="opacity:1" fill="#2da6e6" d="M 153.5,74.5 C 136.799,74.79 120.132,74.4567 103.5,73.5C 101.878,69.624 102.211,65.9574 104.5,62.5C 120.661,61.3385 136.995,61.1718 153.5,62C 158.811,66.2937 158.811,70.4604 153.5,74.5 Z"/></g>
<g><path style="opacity:1" fill="#3ea2d5" d="M 104.5,62.5 C 102.211,65.9574 101.878,69.624 103.5,73.5C 120.132,74.4567 136.799,74.79 153.5,74.5C 137.005,75.6616 120.338,75.8283 103.5,75C 100.735,72.0052 99.9019,68.5052 101,64.5C 101.816,63.1772 102.983,62.5106 104.5,62.5 Z"/></g>
<g><path style="opacity:1" fill="#e8a868" d="M 174.5,93.5 C 174.838,90.8431 174.171,88.5098 172.5,86.5C 169.205,85.5515 165.872,85.5515 162.5,86.5C 165.665,83.197 169.332,82.697 173.5,85C 176.885,87.7431 177.218,90.5764 174.5,93.5 Z"/></g>
<g><path style="opacity:1" fill="#fba243" d="M 149.5,85.5 C 150.299,88.4299 150.632,91.4299 150.5,94.5C 149.942,95.7899 148.942,96.6232 147.5,97C 139.5,97.6667 131.5,97.6667 123.5,97C 122.584,96.7216 121.918,96.2216 121.5,95.5C 119.855,91.3925 120.522,87.7258 123.5,84.5C 130.989,83.3443 138.655,83.1777 146.5,84C 147.244,85.0386 148.244,85.5386 149.5,85.5 Z"/></g>
<g><path style="opacity:1" fill="#eaae69" d="M 123.5,84.5 C 120.522,87.7258 119.855,91.3925 121.5,95.5C 118.856,93.484 118.023,90.8173 119,87.5C 120.129,85.8588 121.629,84.8588 123.5,84.5 Z"/></g>
<g><path style="opacity:1" fill="#e9ac6b" d="M 149.5,85.5 C 151.876,86.512 152.876,88.3454 152.5,91C 152.392,92.6811 151.725,93.8478 150.5,94.5C 150.632,91.4299 150.299,88.4299 149.5,85.5 Z"/></g>
<g><path style="opacity:1" fill="#fba140" d="M 174.5,93.5 C 174.672,94.4916 174.338,95.1583 173.5,95.5C 169.816,96.7278 166.15,96.7278 162.5,95.5C 161.225,92.3962 161.225,89.3962 162.5,86.5C 165.872,85.5515 169.205,85.5515 172.5,86.5C 174.171,88.5098 174.838,90.8431 174.5,93.5 Z"/></g>
<g><path style="opacity:1" fill="#e5aa6c" d="M 162.5,95.5 C 166.15,96.7278 169.816,96.7278 173.5,95.5C 171.883,96.9723 169.883,97.639 167.5,97.5C 166.167,97.3333 164.833,97.1667 163.5,97C 162.944,96.6174 162.611,96.1174 162.5,95.5 Z"/></g>
<g><path style="opacity:1" fill="#59b290" d="M 149.5,106.5 C 144.223,105.931 139.223,106.765 134.5,109C 132.771,110.789 132.104,112.956 132.5,115.5C 130.853,112.248 131.52,109.414 134.5,107C 139.594,105.318 144.594,105.152 149.5,106.5 Z"/></g>
<g><path style="opacity:1" fill="#26b47a" d="M 149.5,106.5 C 153.348,106.681 155.015,108.681 154.5,112.5C 154.721,115.791 153.387,118.291 150.5,120C 146.167,120.667 141.833,120.667 137.5,120C 135.34,119.004 133.673,117.504 132.5,115.5C 132.104,112.956 132.771,110.789 134.5,109C 139.223,106.765 144.223,105.931 149.5,106.5 Z"/></g>
<g><path style="opacity:1" fill="#3db482" d="M 103.5,107.5 C 103.611,106.883 103.944,106.383 104.5,106C 108.833,105.333 113.167,105.333 117.5,106C 122.746,107.237 124.58,110.404 123,115.5C 121.773,117.726 119.939,119.226 117.5,120C 113.5,120.667 109.5,120.667 105.5,120C 100.857,117.928 99.3567,114.428 101,109.5C 101.708,108.619 102.542,107.953 103.5,107.5 Z"/></g>
<g><path style="opacity:1" fill="#16b778" d="M 103.5,107.5 C 108.179,107.334 112.845,107.501 117.5,108C 119.656,116.748 116.323,120.081 107.5,118C 106.347,116.117 104.681,115.284 102.5,115.5C 102.401,112.763 102.735,110.096 103.5,107.5 Z"/></g>
<g><path style="opacity:1" fill="#927ecf" d="M 86.5,128.5 C 85.8902,129.391 85.5569,130.391 85.5,131.5C 84.391,131.557 83.391,131.89 82.5,132.5C 82.8333,130.167 84.1667,128.833 86.5,128.5 Z"/></g>
<g><path style="opacity:1" fill="#8964e7" d="M 86.5,128.5 C 102.911,128.182 119.244,128.516 135.5,129.5C 135.833,132.167 136.167,134.833 136.5,137.5C 134.801,137.34 133.134,137.506 131.5,138C 132.308,138.308 132.975,138.808 133.5,139.5C 117.514,140.499 101.514,140.833 85.5,140.5C 84.1667,137.5 84.1667,134.5 85.5,131.5C 85.5569,130.391 85.8902,129.391 86.5,128.5 Z"/></g>
<g><path style="opacity:1" fill="#8f73da" d="M 135.5,129.5 C 141.161,134.394 140.495,138.561 133.5,142C 117.833,142.667 102.167,142.667 86.5,142C 82.3617,139.781 81.0283,136.614 82.5,132.5C 83.391,131.89 84.391,131.557 85.5,131.5C 84.1667,134.5 84.1667,137.5 85.5,140.5C 101.514,140.833 117.514,140.499 133.5,139.5C 132.975,138.808 132.308,138.308 131.5,138C 133.134,137.506 134.801,137.34 136.5,137.5C 136.167,134.833 135.833,132.167 135.5,129.5 Z"/></g>
<g><path style="opacity:1" fill="#c6c9d2" d="M 85.5,176.5 C 90.1585,176.015 91.4919,177.848 89.5,182C 84.7282,182.81 83.3948,180.977 85.5,176.5 Z"/></g>
<g><path style="opacity:1" fill="#c3c8d2" d="M 170.5,176.5 C 172.144,176.286 173.644,176.62 175,177.5C 175.667,186.5 175.667,195.5 175,204.5C 173.644,205.38 172.144,205.714 170.5,205.5C 170.5,195.833 170.5,186.167 170.5,176.5 Z"/></g>
<g><path style="opacity:1" fill="#c2c7d1" d="M 20.5,176.5 C 24.5138,176.334 28.5138,176.501 32.5,177C 41.408,180.45 42.7413,185.784 36.5,193C 32.6049,194.266 28.6049,194.766 24.5,194.5C 24.5,198.167 24.5,201.833 24.5,205.5C 22.8333,205.5 21.1667,205.5 19.5,205.5C 19.1935,195.75 19.5268,186.084 20.5,176.5 Z"/></g>
<g><path style="opacity:1" fill="#fafafa" d="M 24.5,181.5 C 27.1873,181.336 29.854,181.503 32.5,182C 36.6802,185.148 36.3469,187.814 31.5,190C 29.1902,190.497 26.8568,190.663 24.5,190.5C 24.5,187.5 24.5,184.5 24.5,181.5 Z"/></g>
<g><path style="opacity:1" fill="#c3c8d2" d="M 126.5,184.5 C 131.914,183.634 136.248,185.3 139.5,189.5C 138.562,190.553 137.395,191.22 136,191.5C 127.982,186.013 123.982,188.013 124,197.5C 126.053,201.292 129.219,202.458 133.5,201C 140.231,199.072 140.898,200.405 135.5,205C 123.583,208.071 118.083,203.571 119,191.5C 120.767,188.228 123.267,185.895 126.5,184.5 Z"/></g>
<g><path style="opacity:1" fill="#c6c9d4" d="M 44.5,184.5 C 48.7923,185.416 53.1256,185.416 57.5,184.5C 57.5,186.167 57.5,187.833 57.5,189.5C 54.0295,188.875 51.1962,189.875 49,192.5C 48.501,196.821 48.3343,201.154 48.5,205.5C 46.8561,205.714 45.3561,205.38 44,204.5C 43.2075,197.753 43.3742,191.086 44.5,184.5 Z"/></g>
<g><path style="opacity:1" fill="#c4c9d2" d="M 210.5,176.5 C 211.873,176.343 213.207,176.51 214.5,177C 217.361,179.894 219.861,183.061 222,186.5C 224.36,183.64 226.527,180.64 228.5,177.5C 230.647,176.165 232.647,176.331 234.5,178C 231.132,181.902 228.132,186.069 225.5,190.5C 228.995,195.3 231.995,200.3 234.5,205.5C 232.801,205.66 231.134,205.494 229.5,205C 227.045,201.922 224.711,198.756 222.5,195.5C 219.58,197.833 217.247,200.667 215.5,204C 213.55,205.496 211.55,205.663 209.5,204.5C 212.319,199.854 215.319,195.354 218.5,191C 216.739,187.569 214.572,184.403 212,181.5C 210.991,179.975 210.491,178.308 210.5,176.5 Z"/></g>
<g><path style="opacity:1" fill="#c3c9d3" d="M 65.5,184.5 C 77.7053,183.527 82.5387,188.86 80,200.5C 79.0701,202.552 77.5701,204.052 75.5,205C 63.8807,207.636 58.3807,203.136 59,191.5C 60.6941,188.642 62.8607,186.309 65.5,184.5 Z"/></g>
<g><path style="opacity:1" fill="#fcfcfc" d="M 66.5,188.5 C 73.1643,188 76.331,191 76,197.5C 73.9473,201.292 70.7806,202.458 66.5,201C 62.6447,196.91 62.6447,192.744 66.5,188.5 Z"/></g>
<g><path style="opacity:1" fill="#c3c8d4" d="M 86.5,184.5 C 87.8221,184.33 88.9887,184.663 90,185.5C 90.6667,193.5 90.6667,201.5 90,209.5C 88.6009,213.274 85.7676,214.94 81.5,214.5C 81.5,213.167 81.5,211.833 81.5,210.5C 82.8221,210.67 83.9887,210.337 85,209.5C 85.1966,201.089 85.6966,192.755 86.5,184.5 Z"/></g>
<g><path style="opacity:1" fill="#c3c8d2" d="M 101.5,184.5 C 110.87,183.211 115.536,187.211 115.5,196.5C 110.167,196.5 104.833,196.5 99.5,196.5C 99.2965,198.39 99.9632,199.89 101.5,201C 105.186,201.807 108.686,201.307 112,199.5C 113.28,199.613 114.113,200.28 114.5,201.5C 112.395,204.717 109.395,206.05 105.5,205.5C 96.1332,204.797 92.6332,199.797 95,190.5C 96.4936,187.686 98.6603,185.686 101.5,184.5 Z"/></g>
<g><path style="opacity:1" fill="#f5f6f7" d="M 102.5,188.5 C 104.989,188.298 107.323,188.798 109.5,190C 110.337,191.011 110.67,192.178 110.5,193.5C 106.774,193.823 103.107,193.489 99.5,192.5C 100.524,191.148 101.524,189.815 102.5,188.5 Z"/></g>
<g><path style="opacity:1" fill="#c2c8d2" d="M 145.5,179.5 C 147.167,179.5 148.833,179.5 150.5,179.5C 150.5,181.167 150.5,182.833 150.5,184.5C 154.5,183.833 156.167,185.5 155.5,189.5C 153.833,189.5 152.167,189.5 150.5,189.5C 150.335,193.182 150.501,196.848 151,200.5C 152.356,201.38 153.856,201.714 155.5,201.5C 155.5,202.833 155.5,204.167 155.5,205.5C 151.713,206.186 148.546,205.186 146,202.5C 145.501,198.179 145.334,193.846 145.5,189.5C 141.839,189.65 140.839,188.15 142.5,185C 143.448,184.517 144.448,184.351 145.5,184.5C 145.5,182.833 145.5,181.167 145.5,179.5 Z"/></g>
<g><path style="opacity:1" fill="#c2c8d2" d="M 182.5,176.5 C 189.514,175.805 196.181,176.972 202.5,180C 209.366,187.952 209.033,195.619 201.5,203C 195.058,205.265 188.391,206.099 181.5,205.5C 181.194,195.75 181.527,186.084 182.5,176.5 Z"/></g>
<g><path style="opacity:1" fill="#fbfcfc" d="M 186.5,181.5 C 192.084,180.525 196.917,181.858 201,185.5C 203.658,197.179 198.991,202.179 187,200.5C 186.5,194.175 186.334,187.842 186.5,181.5 Z"/></g>
</svg>
