<?xml version="1.0" encoding="UTF-8"?>
<!DOCTYPE svg PUBLIC "-//W3C//DTD SVG 1.1//EN" "http://www.w3.org/Graphics/SVG/1.1/DTD/svg11.dtd">
<svg xmlns="http://www.w3.org/2000/svg" version="1.1" width="245px" height="249px" style="shape-rendering:geometricPrecision; text-rendering:geometricPrecision; image-rendering:optimizeQuality; fill-rule:evenodd; clip-rule:evenodd" xmlns:xlink="http://www.w3.org/1999/xlink">
<g><path style="opacity:0.988" fill="#fefefe" d="M 10.5,-0.5 C 77.5,-0.5 144.5,-0.5 211.5,-0.5C 213.049,1.40539 214.882,1.73873 217,0.5C 222.096,4.84188 227.262,9.34188 232.5,14C 234.087,14.8624 235.754,15.5291 237.5,16C 239.36,21.0883 241.693,25.9217 244.5,30.5C 244.5,93.1667 244.5,155.833 244.5,218.5C 242.078,220.286 242.078,221.952 244.5,223.5C 244.5,224.5 244.5,225.5 244.5,226.5C 234.436,234.012 225.103,241.346 216.5,248.5C 215.833,248.5 215.167,248.5 214.5,248.5C 214.167,247.167 213.833,247.167 213.5,248.5C 152.167,248.5 90.8333,248.5 29.5,248.5C 24.8516,244.951 19.5183,243.618 13.5,244.5C 13.6633,242.143 13.4966,239.81 13,237.5C 7.76872,232.652 3.26872,227.318 -0.5,221.5C -0.5,152.833 -0.5,84.1667 -0.5,15.5C 0.451114,13.882 1.78445,12.5487 3.5,11.5C 4.04117,9.46476 4.70784,7.46476 5.5,5.5C 6.89097,6.64464 8.2243,6.64464 9.5,5.5C 10.3482,3.59136 10.6816,1.59136 10.5,-0.5 Z"/></g>
<g><path style="opacity:1" fill="#95bf46" d="M 159.5,33.5 C 156.008,103.492 152.675,173.492 149.5,243.5C 103.958,235.467 58.6245,226.801 13.5,217.5C 19.4321,169.405 25.9321,121.405 33,73.5C 35.5106,71.4372 38.344,69.9372 41.5,69C 47.9055,67.198 54.2388,65.198 60.5,63C 64.9153,43.4953 74.2487,26.8286 88.5,13C 96.4095,6.5878 105.409,4.25447 115.5,6C 118.524,7.51335 121.191,9.51335 123.5,12C 131.631,12.482 138.131,15.982 143,22.5C 145.564,26.4622 147.731,30.6288 149.5,35C 152.758,34.5266 156.091,34.0266 159.5,33.5 Z"/></g>
<g><path style="opacity:1" fill="#fcfdf9" d="M 104.5,13.5 C 107.722,13.1081 110.722,13.6081 113.5,15C 106.667,19.1667 101.167,24.6667 97,31.5C 93.4749,38.9084 90.6416,46.5751 88.5,54.5C 82.5491,56.2057 76.7158,58.2057 71,60.5C 74.3304,45.0079 81.4971,31.5079 92.5,20C 96.2005,17.0983 100.2,14.9317 104.5,13.5 Z"/></g>
<g><path style="opacity:1" fill="#fafcf8" d="M 127.5,20.5 C 130.854,21.261 133.687,22.9277 136,25.5C 138.937,29.3736 140.771,33.7069 141.5,38.5C 138.06,39.0906 134.727,40.0906 131.5,41.5C 130.719,34.3505 129.385,27.3505 127.5,20.5 Z"/></g>
<g><path style="opacity:1" fill="#fcfdfa" d="M 117.5,22.5 C 119.614,23.3602 120.78,25.0268 121,27.5C 122.217,33.101 122.717,38.7676 122.5,44.5C 114.666,46.222 106.999,48.5554 99.5,51.5C 101.134,39.2512 107.134,29.5846 117.5,22.5 Z"/></g>
<g><path style="opacity:1" fill="#5e8e3e" d="M 159.5,33.5 C 165.242,37.7347 170.575,42.568 175.5,48C 182.541,48.6849 189.541,49.5182 196.5,50.5C 205.818,109.74 214.484,169.073 222.5,228.5C 198.145,233.338 173.812,238.338 149.5,243.5C 152.675,173.492 156.008,103.492 159.5,33.5 Z"/></g>
<g><path style="opacity:1" fill="#fdfefc" d="M 98.5,86.5 C 104.88,86.3928 111.213,86.8928 117.5,88C 120.032,88.6189 122.365,89.6189 124.5,91C 121.338,99.8167 118.172,108.65 115,117.5C 107.22,113.859 99.0533,112.692 90.5,114C 82.7872,117.584 80.9539,123.084 85,130.5C 90.8333,135 96.6667,139.5 102.5,144C 115.65,157.965 118.15,173.798 110,191.5C 100.129,205.686 86.6291,210.852 69.5,207C 59.9261,204.885 51.9261,200.218 45.5,193C 47.3049,186.261 49.6383,179.761 52.5,173.5C 58.5785,178.705 65.5785,182.039 73.5,183.5C 82.5088,182.308 85.6754,177.308 83,168.5C 75.3574,161.189 68.0241,153.523 61,145.5C 53.421,121.153 60.921,102.986 83.5,91C 88.5351,89.1506 93.5351,87.6506 98.5,86.5 Z"/></g>
</svg>
