<svg xmlns="http://www.w3.org/2000/svg" xmlns:xlink="http://www.w3.org/1999/xlink" width="500" zoomAndPan="magnify" viewBox="0 0 375 374.999991" height="500" preserveAspectRatio="xMidYMid meet" version="1.0"><defs><clipPath id="82ac004ec1"><path d="M 151 149 L 235 149 L 235 226 L 151 226 Z M 151 149 " clip-rule="nonzero"/></clipPath><clipPath id="de4913cd80"><path d="M 233.414062 149.863281 L 205.003906 159.136719 L 180.289062 170.046875 L 173.371094 171.871094 C 171.613281 173.546875 169.765625 175.242188 167.769531 176.960938 C 165.578125 178.851562 163.539062 180.570312 161.96875 181.816406 C 160.230469 183.1875 157.652344 185.765625 156.34375 187.398438 C 154.390625 189.84375 152.84375 192.445312 152.179688 194.441406 C 150.996094 198.046875 151.578125 201.699219 153.851562 205.070312 C 156.773438 209.363281 162.59375 213.746094 169.378906 216.730469 C 172.835938 218.253906 178.65625 220.210938 183.035156 221.304688 C 190.316406 223.152344 204.402344 225.148438 212.152344 225.449219 C 213.722656 225.511719 215.824219 225.511719 215.910156 225.449219 C 216.082031 225.339844 217.285156 223.042969 218.683594 220.1875 C 223.449219 210.460938 226.882812 201.335938 228.753906 193.539062 C 229.871094 188.816406 230.75 182.523438 231.328125 175.074219 C 231.480469 172.988281 231.542969 166.011719 231.414062 163.648438 C 231.222656 159.78125 230.878906 156.648438 230.339844 153.578125 C 230.253906 153.125 230.234375 152.71875 230.277344 152.695312 C 230.363281 152.632812 230.621094 152.546875 234.121094 151.535156 Z M 226.929688 153.664062 C 227.183594 153.664062 227.871094 160.253906 228.042969 164.421875 C 228.085938 165.300781 228.066406 165.882812 228.023438 165.882812 C 227.851562 165.882812 224.394531 163.839844 221.925781 162.296875 C 219.777344 160.941406 215.699219 158.238281 215.054688 157.722656 C 214.839844 157.570312 214.859375 157.550781 216.621094 156.949219 C 219.605469 155.9375 226.691406 153.664062 226.929688 153.664062 Z M 212.453125 158.429688 C 212.648438 158.429688 213.140625 158.707031 214.324219 159.4375 C 218.746094 162.210938 224.757812 165.558594 227.335938 166.675781 C 228.128906 167.019531 228.214844 166.890625 226.390625 168.136719 C 222.484375 170.796875 217.609375 173.417969 211.636719 176.058594 C 210.585938 176.53125 209.707031 176.898438 209.683594 176.898438 C 209.640625 176.898438 209.769531 176.359375 209.941406 175.714844 C 211.378906 170.367188 212.195312 164.957031 212.238281 160.621094 C 212.261719 158.472656 212.261719 158.472656 212.453125 158.410156 C 212.410156 158.429688 212.433594 158.429688 212.453125 158.429688 Z M 209.46875 159.566406 C 209.597656 159.695312 209.511719 164.507812 209.339844 165.816406 C 208.953125 168.953125 208.351562 171.871094 207.367188 175.15625 C 207.128906 175.953125 206.914062 176.617188 206.871094 176.660156 C 206.785156 176.769531 203.84375 173.890625 202.878906 172.773438 C 201.203125 170.839844 199.894531 168.910156 198.925781 167.019531 C 198.433594 166.054688 197.660156 164.164062 197.722656 164.097656 C 198.066406 163.863281 209.382812 159.480469 209.46875 159.566406 Z M 195.425781 165.085938 C 195.449219 165.085938 195.46875 165.085938 195.492188 165.109375 C 195.535156 165.152344 195.683594 165.496094 195.8125 165.882812 C 196.5 167.75 198.046875 170.496094 199.378906 172.257812 C 200.835938 174.191406 202.75 176.253906 204.335938 177.605469 C 204.851562 178.035156 205.324219 178.441406 205.390625 178.507812 C 205.519531 178.636719 205.5625 178.613281 202.0625 179.945312 C 198.003906 181.492188 193.578125 183.039062 188.511719 184.671875 C 187.300781 185.0625 186.089844 185.453125 184.882812 185.851562 C 184.6875 185.914062 184.753906 185.808594 185.3125 184.929688 C 187.824219 181 191.648438 173.289062 193.792969 167.835938 C 194.160156 166.890625 194.523438 165.945312 194.589844 165.730469 C 194.675781 165.429688 194.78125 165.324219 195.0625 165.171875 C 195.210938 165.128906 195.363281 165.085938 195.425781 165.085938 Z M 191.132812 166.867188 C 191.195312 166.910156 190.101562 169.210938 189.027344 171.3125 C 186.945312 175.371094 184.667969 179.367188 181.617188 184.21875 C 181.101562 185.058594 180.609375 185.832031 180.546875 185.917969 C 180.4375 186.066406 180.394531 186.023438 180.050781 185.359375 C 179.320312 183.917969 178.71875 182.070312 178.398438 180.375 C 178.074219 178.699219 178.140625 175.78125 178.503906 173.976562 C 178.785156 172.644531 178.761719 172.667969 179.40625 172.34375 C 182.15625 170.949219 191.046875 166.78125 191.132812 166.867188 Z M 228.171875 168.371094 L 228.171875 169.273438 C 228.171875 174.0625 227.65625 180.632812 226.90625 185.421875 C 226.777344 186.257812 226.667969 186.945312 226.648438 186.96875 C 226.648438 186.96875 226.027344 186.796875 225.296875 186.582031 C 222.074219 185.574219 218.574219 184.089844 215.417969 182.351562 C 213.335938 181.214844 210.308594 179.34375 210.394531 179.257812 C 210.414062 179.238281 211.316406 178.765625 212.367188 178.207031 C 216.578125 176.015625 220.613281 173.65625 224.113281 171.3125 C 225.425781 170.433594 227.398438 169.015625 227.828125 168.628906 Z M 174.917969 174.726562 C 175.003906 174.726562 174.984375 174.898438 174.855469 175.671875 C 174.769531 176.230469 174.660156 177.261719 174.617188 177.96875 C 174.445312 181.105469 174.960938 183.425781 176.507812 186.601562 C 176.9375 187.484375 177.28125 188.214844 177.257812 188.234375 C 177.109375 188.363281 162.894531 192.53125 158.425781 193.753906 C 157.097656 194.117188 155.9375 194.441406 155.851562 194.460938 C 155.699219 194.503906 155.679688 194.484375 155.742188 194.117188 C 156.238281 190.960938 158.640625 186.839844 161.992188 183.359375 C 164.226562 181.042969 166.007812 179.6875 169.054688 177.949219 C 171.246094 176.703125 174.617188 174.835938 174.875 174.75 C 174.875 174.726562 174.898438 174.726562 174.917969 174.726562 Z M 208.417969 180.71875 C 208.4375 180.699219 208.953125 180.976562 209.578125 181.34375 C 214.171875 184.003906 220.570312 186.472656 226.023438 187.742188 L 226.519531 187.847656 L 225.832031 188.234375 C 222.976562 189.824219 213.59375 193.730469 203.992188 197.320312 C 202.597656 197.832031 201.222656 198.347656 200.964844 198.457031 C 200.707031 198.5625 200.472656 198.628906 200.472656 198.605469 C 200.472656 198.585938 200.859375 197.832031 201.351562 196.910156 C 204.035156 191.886719 206.742188 185.765625 208.117188 181.515625 C 208.289062 181.105469 208.394531 180.742188 208.417969 180.71875 Z M 205.003906 181.835938 C 205.023438 181.859375 204.851562 182.308594 204.636719 182.824219 C 202.769531 187.355469 200.320312 192.292969 197.1875 197.832031 C 196.390625 199.25 195.726562 200.390625 195.703125 200.390625 C 195.683594 200.390625 195.039062 200.003906 194.265625 199.53125 C 189.714844 196.738281 185.675781 193.304688 183.035156 189.972656 L 182.648438 189.503906 L 184.601562 188.964844 C 191.605469 187.054688 197.550781 184.992188 203.457031 182.460938 C 204.292969 182.117188 204.980469 181.835938 205.003906 181.835938 Z M 226.21875 189.246094 C 226.21875 189.246094 226.242188 189.265625 226.21875 189.246094 C 226.242188 189.738281 225.144531 194.160156 224.242188 197.359375 C 223.492188 200.046875 222.847656 202.148438 221.667969 205.863281 C 221.152344 207.496094 220.699219 208.847656 220.679688 208.847656 C 220.65625 208.847656 220.527344 208.828125 220.398438 208.785156 C 214.023438 207.625 208.308594 206.015625 202.941406 203.867188 C 201.4375 203.265625 199.292969 202.300781 199.164062 202.191406 C 199.121094 202.148438 200.40625 201.546875 202.039062 200.839844 C 211.808594 196.566406 221.945312 191.714844 225.425781 189.628906 C 225.832031 189.371094 226.15625 189.246094 226.21875 189.246094 Z M 177.238281 190.917969 C 177.28125 190.960938 174.554688 194.890625 170.730469 200.238281 C 169.398438 202.105469 167.855469 204.296875 167.273438 205.113281 C 166.695312 205.929688 165.8125 207.21875 165.320312 207.992188 L 164.417969 209.386719 L 163.453125 208.570312 C 162.3125 207.625 160.339844 205.605469 159.457031 204.492188 C 157.609375 202.191406 156.367188 199.765625 155.871094 197.554688 C 155.636719 196.523438 155.636719 196.007812 155.851562 195.945312 C 156.171875 195.859375 161.90625 194.503906 167.273438 193.261719 C 170.257812 192.574219 173.714844 191.757812 174.960938 191.457031 C 176.207031 191.15625 177.214844 190.917969 177.238281 190.917969 Z M 179.988281 191.972656 L 180.671875 192.746094 C 183.765625 196.203125 186.921875 198.757812 190.746094 200.992188 C 191.433594 201.378906 191.949219 201.71875 191.902344 201.742188 C 191.753906 201.847656 178.632812 206.507812 172.558594 208.613281 C 169.140625 209.816406 166.328125 210.78125 166.308594 210.78125 C 166.285156 210.78125 166.09375 210.652344 165.878906 210.503906 L 165.492188 210.222656 L 166.113281 209.320312 C 168.132812 206.402344 170.667969 203.203125 176.1875 196.546875 Z M 197.121094 204.234375 C 197.144531 204.210938 198.089844 204.554688 199.25 204.984375 C 202.039062 206.035156 204.25 206.703125 207.214844 207.453125 C 210.867188 208.378906 216.148438 209.28125 219.261719 209.535156 C 219.734375 209.578125 219.992188 209.621094 219.90625 209.6875 C 219.753906 209.773438 216.597656 210.824219 214.28125 211.554688 C 210.585938 212.714844 199.3125 216.042969 190.121094 218.683594 C 188.425781 219.179688 186.964844 219.585938 186.878906 219.609375 C 186.664062 219.652344 185.957031 219.457031 185.957031 219.371094 C 185.957031 219.328125 186.472656 218.664062 187.09375 217.933594 C 190.1875 214.238281 193.257812 210.117188 195.8125 206.207031 C 196.519531 205.132812 197.121094 204.253906 197.121094 204.234375 Z M 193.34375 204.339844 C 193.363281 204.363281 191.839844 206.808594 189.175781 211.019531 C 188.039062 212.800781 186.773438 214.820312 186.320312 215.527344 C 185.890625 216.214844 185.246094 217.289062 184.882812 217.890625 L 184.257812 218.984375 L 183.9375 218.898438 C 183.164062 218.683594 177.730469 216.773438 176.292969 216.195312 C 174.511719 215.484375 172.664062 214.625 171.289062 213.894531 C 169.570312 212.972656 167.425781 211.597656 167.597656 211.554688 C 167.640625 211.535156 170.582031 210.738281 174.125 209.773438 C 183.53125 207.21875 188.746094 205.734375 192.160156 204.664062 C 192.785156 204.46875 193.320312 204.320312 193.34375 204.339844 Z M 220.078125 210.609375 L 220.097656 210.609375 C 220.183594 210.824219 216.707031 220.488281 215.4375 223.539062 C 215.160156 224.222656 215.054688 224.398438 214.902344 224.375 C 214.539062 224.355469 209.492188 223.644531 206.421875 223.195312 C 201.074219 222.378906 192.097656 220.808594 189.84375 220.296875 L 189.328125 220.1875 L 192.527344 219.457031 C 199.398438 217.910156 202.707031 217.074219 206.054688 216.042969 C 210.285156 214.753906 214.472656 213.144531 218.703125 211.167969 C 219.367188 210.867188 219.925781 210.632812 220.078125 210.609375 Z M 220.078125 210.609375 " clip-rule="nonzero"/></clipPath><linearGradient x1="-4737.450475" gradientTransform="matrix(0.0122194, 0, 0, -0.0122194, 208.415299, 222.750012)" y1="-160.994084" x2="3016.245947" gradientUnits="userSpaceOnUse" y2="4420.542526" id="79e3ba1058"><stop stop-opacity="1" stop-color="rgb(56.498718%, 61.199951%, 66.299438%)" offset="0"/><stop stop-opacity="1" stop-color="rgb(56.498718%, 61.199951%, 66.299438%)" offset="0.125"/><stop stop-opacity="1" stop-color="rgb(56.498718%, 61.199951%, 66.299438%)" offset="0.1875"/><stop stop-opacity="1" stop-color="rgb(56.498718%, 61.199951%, 66.299438%)" offset="0.21875"/><stop stop-opacity="1" stop-color="rgb(56.498718%, 61.199951%, 66.299438%)" offset="0.234375"/><stop stop-opacity="1" stop-color="rgb(57.415771%, 61.997986%, 66.978455%)" offset="0.238281"/><stop stop-opacity="1" stop-color="rgb(58.332825%, 62.796021%, 67.658997%)" offset="0.242187"/><stop stop-opacity="1" stop-color="rgb(59.643555%, 63.937378%, 68.630981%)" offset="0.246094"/><stop stop-opacity="1" stop-color="rgb(60.955811%, 65.080261%, 69.604492%)" offset="0.25"/><stop stop-opacity="1" stop-color="rgb(62.266541%, 66.221619%, 70.576477%)" offset="0.253906"/><stop stop-opacity="1" stop-color="rgb(63.578796%, 67.364502%, 71.549988%)" offset="0.257812"/><stop stop-opacity="1" stop-color="rgb(64.889526%, 68.505859%, 72.521973%)" offset="0.261719"/><stop stop-opacity="1" stop-color="rgb(66.201782%, 69.648743%, 73.495483%)" offset="0.265625"/><stop stop-opacity="1" stop-color="rgb(67.512512%, 70.7901%, 74.467468%)" offset="0.269531"/><stop stop-opacity="1" stop-color="rgb(68.823242%, 71.932983%, 75.440979%)" offset="0.273438"/><stop stop-opacity="1" stop-color="rgb(70.133972%, 73.074341%, 76.412964%)" offset="0.277344"/><stop stop-opacity="1" stop-color="rgb(71.446228%, 74.217224%, 77.386475%)" offset="0.28125"/><stop stop-opacity="1" stop-color="rgb(72.756958%, 75.358582%, 78.358459%)" offset="0.285156"/><stop stop-opacity="1" stop-color="rgb(74.069214%, 76.501465%, 79.33197%)" offset="0.289062"/><stop stop-opacity="1" stop-color="rgb(75.379944%, 77.642822%, 80.303955%)" offset="0.292969"/><stop stop-opacity="1" stop-color="rgb(76.6922%, 78.78418%, 81.277466%)" offset="0.296875"/><stop stop-opacity="1" stop-color="rgb(78.00293%, 79.925537%, 82.249451%)" offset="0.300781"/><stop stop-opacity="1" stop-color="rgb(79.315186%, 81.06842%, 83.222961%)" offset="0.304687"/><stop stop-opacity="1" stop-color="rgb(80.625916%, 82.209778%, 84.194946%)" offset="0.308594"/><stop stop-opacity="1" stop-color="rgb(81.938171%, 83.352661%, 85.168457%)" offset="0.3125"/><stop stop-opacity="1" stop-color="rgb(83.248901%, 84.494019%, 86.140442%)" offset="0.316406"/><stop stop-opacity="1" stop-color="rgb(84.561157%, 85.636902%, 87.113953%)" offset="0.320312"/><stop stop-opacity="1" stop-color="rgb(85.871887%, 86.778259%, 88.085938%)" offset="0.324219"/><stop stop-opacity="1" stop-color="rgb(87.182617%, 87.921143%, 89.059448%)" offset="0.328125"/><stop stop-opacity="1" stop-color="rgb(88.493347%, 89.0625%, 90.031433%)" offset="0.332031"/><stop stop-opacity="1" stop-color="rgb(89.805603%, 90.205383%, 91.004944%)" offset="0.335937"/><stop stop-opacity="1" stop-color="rgb(91.116333%, 91.346741%, 91.976929%)" offset="0.339844"/><stop stop-opacity="1" stop-color="rgb(92.428589%, 92.489624%, 92.950439%)" offset="0.34375"/><stop stop-opacity="1" stop-color="rgb(92.663574%, 92.694092%, 93.12439%)" offset="0.347656"/><stop stop-opacity="1" stop-color="rgb(92.89856%, 92.89856%, 93.299866%)" offset="0.351562"/><stop stop-opacity="1" stop-color="rgb(92.89856%, 92.89856%, 93.299866%)" offset="0.359375"/><stop stop-opacity="1" stop-color="rgb(92.89856%, 92.89856%, 93.299866%)" offset="0.375"/><stop stop-opacity="1" stop-color="rgb(92.89856%, 92.89856%, 93.299866%)" offset="0.5"/><stop stop-opacity="1" stop-color="rgb(92.89856%, 92.89856%, 93.299866%)" offset="0.650292"/><stop stop-opacity="1" stop-color="rgb(92.89856%, 92.89856%, 93.299866%)" offset="1"/></linearGradient><clipPath id="a31f137379"><path d="M 173 83 L 218 83 L 218 111 L 173 111 Z M 173 83 " clip-rule="nonzero"/></clipPath><clipPath id="fe8cda70df"><path d="M 204.121094 83.636719 C 203.652344 83.574219 196.027344 86.320312 191.109375 88.320312 C 184.472656 91.023438 179.320312 93.601562 176.144531 95.835938 C 174.960938 96.671875 173.480469 98.152344 173.246094 98.734375 C 173.160156 98.949219 173.113281 99.207031 173.113281 99.464844 L 175.992188 102.191406 L 182.84375 104.378906 L 199.140625 107.300781 L 217.78125 110.5 L 217.972656 108.890625 C 217.910156 108.890625 217.867188 108.867188 217.800781 108.867188 L 215.351562 108.480469 L 214.859375 107.601562 C 212.324219 103.136719 209.535156 97.59375 207.902344 93.859375 C 206.636719 90.960938 205.433594 87.609375 204.765625 85.207031 C 204.402344 83.746094 204.359375 83.660156 204.125 83.636719 Z M 203.777344 84.734375 L 203.800781 84.734375 C 203.820312 84.753906 203.90625 85.355469 203.996094 86.0625 C 204.359375 89.070312 205.023438 91.96875 206.078125 95.105469 C 206.871094 97.464844 206.871094 97.335938 205.949219 97.058594 C 203.757812 96.457031 193.945312 94.761719 186.835938 93.773438 C 185.699219 93.621094 184.730469 93.472656 184.730469 93.449219 C 184.648438 93.367188 189.863281 90.636719 192.164062 89.566406 C 195.105469 88.210938 203.179688 84.839844 203.777344 84.734375 Z M 183.078125 94.351562 L 183.917969 94.632812 C 188.46875 96.179688 199.914062 98.367188 206.226562 98.882812 C 206.9375 98.949219 207.539062 99.011719 207.558594 99.011719 C 207.578125 99.035156 206.980469 99.355469 206.207031 99.722656 C 203.15625 101.246094 199.804688 103.113281 197.488281 104.554688 C 196.800781 104.980469 196.175781 105.324219 196.089844 105.324219 C 196.003906 105.324219 195.554688 105.238281 195.082031 105.175781 L 194.222656 105.046875 L 192.078125 102.941406 C 188.296875 99.269531 185.332031 96.4375 184.195312 95.363281 Z M 182.21875 95.019531 L 185.246094 98.796875 C 186.902344 100.878906 188.574219 102.921875 188.941406 103.371094 C 189.304688 103.824219 189.605469 104.1875 189.585938 104.210938 C 189.5 104.273438 185.207031 103.4375 182.929688 102.921875 C 180.589844 102.382812 179.621094 102.125 178.183594 101.675781 L 177 101.289062 L 177 100.988281 C 177.023438 99.550781 178.847656 97.402344 181.941406 95.210938 Z M 207.945312 100.171875 C 208.03125 100.171875 208.136719 100.367188 208.394531 100.945312 C 209.125 102.554688 211.402344 106.894531 211.960938 107.730469 C 212.132812 108.011719 212.433594 108.03125 209.40625 107.539062 C 202.125 106.355469 199.785156 105.96875 199.785156 105.925781 C 199.785156 105.90625 200 105.753906 200.277344 105.605469 C 202.535156 104.359375 204.808594 102.769531 206.828125 101.074219 C 207.324219 100.664062 207.773438 100.28125 207.859375 100.214844 C 207.878906 100.171875 207.921875 100.152344 207.945312 100.171875 Z M 207.945312 100.171875 " clip-rule="nonzero"/></clipPath><linearGradient x1="-2888.864708" gradientTransform="matrix(0.0122194, 0, 0, -0.0122194, 208.415299, 222.750012)" y1="10288.8096" x2="782.205494" gradientUnits="userSpaceOnUse" y2="10288.8096" id="69276e06bb"><stop stop-opacity="1" stop-color="rgb(57.598877%, 62.399292%, 67.098999%)" offset="0"/><stop stop-opacity="1" stop-color="rgb(58.076477%, 62.809753%, 67.449951%)" offset="0.00390625"/><stop stop-opacity="1" stop-color="rgb(58.554077%, 63.221741%, 67.800903%)" offset="0.0078125"/><stop stop-opacity="1" stop-color="rgb(59.162903%, 63.745117%, 68.247986%)" offset="0.0117188"/><stop stop-opacity="1" stop-color="rgb(59.771729%, 64.268494%, 68.696594%)" offset="0.015625"/><stop stop-opacity="1" stop-color="rgb(60.379028%, 64.79187%, 69.143677%)" offset="0.0195313"/><stop stop-opacity="1" stop-color="rgb(60.987854%, 65.315247%, 69.590759%)" offset="0.0234375"/><stop stop-opacity="1" stop-color="rgb(61.59668%, 65.838623%, 70.037842%)" offset="0.0273438"/><stop stop-opacity="1" stop-color="rgb(62.205505%, 66.363525%, 70.484924%)" offset="0.03125"/><stop stop-opacity="1" stop-color="rgb(62.812805%, 66.886902%, 70.932007%)" offset="0.0351562"/><stop stop-opacity="1" stop-color="rgb(63.421631%, 67.410278%, 71.380615%)" offset="0.0390625"/><stop stop-opacity="1" stop-color="rgb(64.030457%, 67.933655%, 71.827698%)" offset="0.0429688"/><stop stop-opacity="1" stop-color="rgb(64.639282%, 68.457031%, 72.27478%)" offset="0.046875"/><stop stop-opacity="1" stop-color="rgb(65.246582%, 68.980408%, 72.721863%)" offset="0.0507812"/><stop stop-opacity="1" stop-color="rgb(65.855408%, 69.50531%, 73.168945%)" offset="0.0546875"/><stop stop-opacity="1" stop-color="rgb(66.462708%, 70.028687%, 73.616028%)" offset="0.0585938"/><stop stop-opacity="1" stop-color="rgb(67.071533%, 70.552063%, 74.06311%)" offset="0.0625"/><stop stop-opacity="1" stop-color="rgb(67.680359%, 71.075439%, 74.510193%)" offset="0.0664062"/><stop stop-opacity="1" stop-color="rgb(68.289185%, 71.598816%, 74.958801%)" offset="0.0703125"/><stop stop-opacity="1" stop-color="rgb(68.896484%, 72.122192%, 75.405884%)" offset="0.0742188"/><stop stop-opacity="1" stop-color="rgb(69.50531%, 72.647095%, 75.852966%)" offset="0.078125"/><stop stop-opacity="1" stop-color="rgb(70.114136%, 73.170471%, 76.300049%)" offset="0.0820312"/><stop stop-opacity="1" stop-color="rgb(70.722961%, 73.693848%, 76.747131%)" offset="0.0859375"/><stop stop-opacity="1" stop-color="rgb(71.330261%, 74.217224%, 77.194214%)" offset="0.0898438"/><stop stop-opacity="1" stop-color="rgb(71.939087%, 74.740601%, 77.642822%)" offset="0.09375"/><stop stop-opacity="1" stop-color="rgb(72.547913%, 75.263977%, 78.089905%)" offset="0.0976563"/><stop stop-opacity="1" stop-color="rgb(73.156738%, 75.788879%, 78.536987%)" offset="0.101563"/><stop stop-opacity="1" stop-color="rgb(73.764038%, 76.312256%, 78.98407%)" offset="0.105469"/><stop stop-opacity="1" stop-color="rgb(74.372864%, 76.835632%, 79.431152%)" offset="0.109375"/><stop stop-opacity="1" stop-color="rgb(74.981689%, 77.359009%, 79.878235%)" offset="0.113281"/><stop stop-opacity="1" stop-color="rgb(75.590515%, 77.882385%, 80.325317%)" offset="0.117188"/><stop stop-opacity="1" stop-color="rgb(76.197815%, 78.405762%, 80.7724%)" offset="0.121094"/><stop stop-opacity="1" stop-color="rgb(76.806641%, 78.929138%, 81.221008%)" offset="0.125"/><stop stop-opacity="1" stop-color="rgb(77.415466%, 79.452515%, 81.668091%)" offset="0.128906"/><stop stop-opacity="1" stop-color="rgb(78.024292%, 79.977417%, 82.115173%)" offset="0.132813"/><stop stop-opacity="1" stop-color="rgb(78.631592%, 80.500793%, 82.562256%)" offset="0.136719"/><stop stop-opacity="1" stop-color="rgb(79.240417%, 81.02417%, 83.009338%)" offset="0.140625"/><stop stop-opacity="1" stop-color="rgb(79.849243%, 81.547546%, 83.456421%)" offset="0.144531"/><stop stop-opacity="1" stop-color="rgb(80.458069%, 82.070923%, 83.905029%)" offset="0.148438"/><stop stop-opacity="1" stop-color="rgb(81.065369%, 82.594299%, 84.352112%)" offset="0.152344"/><stop stop-opacity="1" stop-color="rgb(81.674194%, 83.119202%, 84.799194%)" offset="0.15625"/><stop stop-opacity="1" stop-color="rgb(82.281494%, 83.642578%, 85.246277%)" offset="0.160156"/><stop stop-opacity="1" stop-color="rgb(82.89032%, 84.165955%, 85.693359%)" offset="0.164063"/><stop stop-opacity="1" stop-color="rgb(83.499146%, 84.689331%, 86.140442%)" offset="0.167969"/><stop stop-opacity="1" stop-color="rgb(84.107971%, 85.212708%, 86.587524%)" offset="0.171875"/><stop stop-opacity="1" stop-color="rgb(84.715271%, 85.736084%, 87.034607%)" offset="0.175781"/><stop stop-opacity="1" stop-color="rgb(85.324097%, 86.260986%, 87.483215%)" offset="0.179688"/><stop stop-opacity="1" stop-color="rgb(85.810852%, 86.679077%, 87.840271%)" offset="0.183594"/><stop stop-opacity="1" stop-color="rgb(86.299133%, 87.098694%, 88.198853%)" offset="0.1875"/><stop stop-opacity="1" stop-color="rgb(86.299133%, 87.098694%, 88.198853%)" offset="0.25"/><stop stop-opacity="1" stop-color="rgb(86.299133%, 87.098694%, 88.198853%)" offset="0.5"/><stop stop-opacity="1" stop-color="rgb(86.299133%, 87.098694%, 88.198853%)" offset="1"/></linearGradient><clipPath id="fe69b645e1"><path d="M 162 98 L 282 98 L 282 182 L 162 182 Z M 162 98 " clip-rule="nonzero"/></clipPath><clipPath id="d7affea437"><path d="M 173.394531 98.433594 C 173.394531 98.433594 172.921875 99.183594 173.371094 100.300781 C 173.652344 100.988281 174.46875 101.824219 175.390625 102.683594 C 175.390625 102.683594 184.945312 112.003906 186.105469 113.335938 C 191.390625 119.433594 193.6875 125.445312 193.902344 133.734375 C 194.03125 139.0625 193.019531 143.742188 190.507812 149.175781 C 186.042969 158.925781 176.613281 169.683594 162.078125 181.621094 L 164.203125 180.914062 C 165.578125 179.882812 167.445312 178.789062 171.828125 176.382812 C 181.941406 170.839844 193.320312 165.753906 207.28125 160.511719 C 227.378906 152.953125 260.425781 144.105469 279.238281 141.230469 L 281.191406 140.929688 L 280.890625 140.457031 C 279.171875 137.792969 277.992188 136.140625 276.574219 134.378906 C 272.453125 129.269531 267.449219 125.125 261.328125 121.6875 C 252.910156 116.984375 242.023438 113.3125 228.238281 110.585938 C 225.640625 110.070312 219.925781 109.082031 215.289062 108.375 C 205.453125 106.851562 199.097656 105.796875 192.097656 104.597656 C 189.585938 104.167969 185.828125 103.523438 183.335938 102.984375 C 182.046875 102.707031 179.578125 102.125 177.644531 101.460938 C 176.101562 100.859375 173.867188 100.257812 173.394531 98.433594 Z M 178.933594 103.800781 C 178.957031 103.78125 179.300781 103.910156 179.75 104.058594 C 180.566406 104.335938 181.617188 104.660156 182.863281 105.003906 C 183.808594 105.261719 184.75 105.511719 185.699219 105.753906 C 186.988281 106.078125 188.0625 106.378906 188.082031 106.378906 C 188.234375 106.527344 190.402344 113.464844 191.132812 116.125 C 191.410156 117.136719 191.625 117.996094 191.605469 117.996094 C 191.582031 118.015625 191.347656 117.652344 191.066406 117.15625 C 188.554688 112.734375 184.582031 108.246094 179.988281 104.636719 C 179.386719 104.210938 178.933594 103.824219 178.933594 103.800781 Z M 189.5 106.722656 C 189.605469 106.722656 190.078125 106.785156 190.660156 106.914062 C 194.308594 107.730469 200.859375 108.976562 205.046875 109.683594 C 205.753906 109.792969 206.3125 109.921875 206.3125 109.964844 C 206.3125 110.007812 206.054688 110.15625 205.734375 110.328125 C 205.023438 110.695312 202.167969 112.390625 201.222656 113.035156 C 198.839844 114.625 196.691406 116.339844 195.148438 117.886719 C 194.523438 118.511719 193.988281 119.027344 193.988281 119.027344 C 193.988281 119.027344 193.859375 118.660156 193.75 118.210938 C 192.976562 115.226562 191.367188 110.800781 189.90625 107.6875 C 189.671875 107.195312 189.476562 106.742188 189.476562 106.699219 C 189.476562 106.742188 189.476562 106.722656 189.5 106.722656 Z M 208.09375 110.265625 C 208.222656 110.308594 208.4375 111.039062 208.867188 112.648438 C 209.664062 115.761719 210.027344 119.242188 209.898438 122.484375 C 209.855469 123.386719 209.8125 124.222656 209.769531 124.328125 L 209.707031 124.542969 L 208.589844 124.179688 C 206.292969 123.449219 202.554688 122.355469 199.355469 121.453125 C 197.53125 120.957031 196.050781 120.507812 196.050781 120.464844 C 196.050781 120.335938 198.710938 117.671875 199.851562 116.664062 C 202.019531 114.753906 207.902344 110.199219 208.09375 110.265625 Z M 209.578125 110.480469 C 209.640625 110.414062 218.46875 111.9375 222.484375 112.710938 C 225.46875 113.292969 229.804688 114.195312 230.0625 114.300781 C 230.191406 114.34375 229.742188 114.601562 228.300781 115.246094 C 222.632812 117.800781 218.425781 120.097656 214.238281 122.890625 C 213.140625 123.621094 212.21875 124.222656 212.195312 124.222656 C 212.175781 124.222656 212.152344 123.601562 212.152344 122.847656 C 212.152344 118.769531 211.339844 114.644531 209.835938 111.167969 C 209.683594 110.824219 209.554688 110.5 209.578125 110.480469 Z M 232.402344 114.988281 C 232.46875 115.054688 232.1875 116.792969 231.929688 117.824219 C 231.15625 121.023438 229.074219 125.769531 226.519531 130.234375 C 226.070312 131.03125 225.660156 131.675781 225.617188 131.695312 C 225.574219 131.714844 224.996094 131.394531 224.328125 131.007812 C 221.839844 129.546875 219.003906 128.171875 215.910156 126.886719 C 215.054688 126.519531 214.300781 126.21875 214.28125 126.175781 C 214.128906 126.046875 221.042969 121.472656 224.695312 119.285156 C 227.59375 117.523438 232.316406 114.902344 232.402344 114.988281 Z M 234.035156 115.246094 C 234.230469 115.246094 238.136719 116.320312 240.175781 116.921875 C 245.222656 118.425781 251.019531 120.550781 254.800781 122.269531 L 256.367188 122.976562 L 255.273438 123.234375 C 246.039062 125.359375 238.136719 127.808594 230.511719 130.902344 C 229.890625 131.160156 229.332031 131.375 229.289062 131.375 C 229.246094 131.375 229.460938 130.878906 229.742188 130.277344 C 232.039062 125.402344 233.519531 120.3125 233.886719 115.976562 C 233.90625 115.570312 233.96875 115.246094 234.035156 115.246094 Z M 195.125 124.179688 C 195.191406 124.113281 198.175781 124.824219 199.785156 125.273438 C 202.234375 125.960938 207.429688 127.699219 207.429688 127.828125 C 207.429688 127.851562 206.851562 128.34375 206.164062 128.945312 C 203.351562 131.289062 200.644531 133.757812 197.402344 136.890625 C 196.433594 137.816406 195.621094 138.566406 195.578125 138.566406 C 195.535156 138.566406 195.511719 138.4375 195.535156 138.265625 C 196.027344 134.660156 195.921875 130.019531 195.234375 125.316406 C 195.167969 124.714844 195.105469 124.199219 195.125 124.179688 Z M 257.851562 124.246094 C 257.890625 124.285156 256.476562 126.519531 255.574219 127.785156 C 254.285156 129.632812 252.394531 132.082031 248.121094 137.449219 C 245.867188 140.285156 243.332031 143.484375 242.496094 144.558594 C 241.636719 145.632812 240.929688 146.535156 240.90625 146.535156 C 240.886719 146.535156 240.605469 146.148438 240.304688 145.675781 C 237.902344 142.066406 235.023438 138.910156 231.609375 136.074219 C 230.964844 135.539062 230.257812 134.960938 230.019531 134.789062 C 229.785156 134.617188 229.589844 134.445312 229.589844 134.421875 C 229.589844 134.359375 233.242188 132.789062 236.011719 131.671875 C 240.863281 129.699219 247.476562 127.335938 252.4375 125.8125 C 255.035156 124.996094 257.804688 124.199219 257.851562 124.246094 Z M 259.503906 124.671875 C 259.589844 124.652344 260.105469 124.910156 260.726562 125.273438 C 265.945312 128.257812 271.054688 132.101562 275.09375 136.054688 C 276.230469 137.171875 279.042969 140.089844 279 140.113281 C 279 140.113281 278.011719 140.199219 276.855469 140.285156 C 267.8125 140.972656 256.238281 142.882812 245.117188 145.566406 C 244.363281 145.738281 243.699219 145.890625 243.65625 145.890625 C 243.613281 145.890625 244.449219 145.050781 245.503906 144.042969 C 252.03125 137.75 255.015625 133.777344 258.535156 126.691406 C 259.03125 125.640625 259.460938 124.738281 259.503906 124.671875 C 259.480469 124.671875 259.480469 124.671875 259.503906 124.671875 Z M 211.679688 129.570312 C 211.980469 129.632812 214.773438 130.945312 216.878906 131.996094 C 218.8125 132.960938 221.710938 134.507812 221.859375 134.636719 C 221.882812 134.660156 220.851562 135.195312 219.585938 135.816406 C 215.546875 137.835938 212.089844 139.746094 208.480469 141.9375 C 207.453125 142.5625 206.59375 143.078125 206.570312 143.078125 C 206.484375 143.078125 206.507812 142.988281 207.085938 141.9375 C 209.019531 138.417969 210.566406 134.207031 211.445312 130.105469 C 211.53125 129.785156 211.617188 129.570312 211.679688 129.570312 Z M 208.890625 130.085938 C 208.953125 130.148438 208.222656 132.789062 207.773438 134.230469 C 206.894531 136.957031 205.410156 140.371094 203.972656 142.949219 C 203.628906 143.546875 203.113281 144.429688 202.835938 144.921875 L 202.296875 145.78125 L 201.09375 144.621094 C 199.699219 143.269531 198.5625 142.433594 197.101562 141.679688 C 196.519531 141.378906 196.070312 141.121094 196.070312 141.078125 C 196.070312 140.90625 199.742188 137.578125 202.554688 135.175781 C 204.574219 133.433594 208.824219 130.019531 208.890625 130.085938 Z M 225.960938 137.105469 L 227.015625 137.792969 C 229.417969 139.363281 232.253906 141.445312 234.421875 143.269531 C 235.644531 144.277344 238.007812 146.40625 238.480469 146.917969 L 238.738281 147.199219 L 237 147.691406 C 227.164062 150.421875 219.5625 152.847656 210.695312 156.109375 C 209.707031 156.476562 208.867188 156.777344 208.804688 156.777344 C 208.675781 156.777344 208.566406 156.882812 210.78125 154.84375 C 216.449219 149.625 221.472656 143.871094 225.210938 138.265625 Z M 221.472656 138.222656 C 221.515625 138.265625 218.574219 142.410156 216.8125 144.75 C 214.710938 147.542969 210.972656 152.222656 208.394531 155.273438 C 207.324219 156.539062 206.398438 157.59375 206.355469 157.613281 C 206.292969 157.636719 206.269531 157.3125 206.269531 156.820312 C 206.269531 154.21875 205.605469 151.449219 204.445312 149.089844 C 203.949219 148.101562 203.863281 147.863281 203.972656 147.757812 C 204.378906 147.390625 210.628906 143.828125 214.582031 141.703125 C 217.242188 140.285156 221.410156 138.179688 221.472656 138.222656 Z M 194.332031 144.878906 C 194.394531 144.878906 194.890625 145.136719 195.449219 145.4375 C 196.820312 146.191406 198.046875 147.027344 199.140625 147.929688 C 199.183594 147.972656 198.625 148.421875 197.894531 148.960938 C 195.855469 150.421875 192.761719 152.761719 190.960938 154.199219 C 189.070312 155.703125 189.003906 155.746094 189.21875 155.421875 C 190.636719 153.253906 191.347656 152.03125 192.097656 150.464844 C 192.761719 149.066406 193.429688 147.414062 193.902344 145.976562 C 194.074219 145.351562 194.289062 144.878906 194.332031 144.878906 Z M 201.566406 150.550781 C 201.675781 150.527344 201.804688 150.71875 202.382812 151.578125 C 203.605469 153.40625 204.550781 155.851562 204.789062 157.828125 L 204.832031 158.257812 L 201.890625 159.394531 C 196.628906 161.4375 191.777344 163.453125 188.488281 164.957031 C 187.566406 165.386719 185.957031 166.160156 184.902344 166.675781 C 183.851562 167.210938 182.992188 167.621094 182.992188 167.597656 C 182.992188 167.578125 183.660156 167.082031 184.472656 166.480469 C 190.894531 161.824219 196.457031 156.710938 200.621094 151.601562 C 201.074219 151.0625 201.480469 150.570312 201.523438 150.550781 Z M 198.238281 151.363281 C 198.324219 151.449219 195.878906 154.222656 194.203125 155.917969 C 190.058594 160.148438 185.957031 163.453125 180.867188 166.675781 C 180.222656 167.082031 179.644531 167.449219 179.578125 167.492188 C 179.429688 167.578125 179.621094 167.363281 181.855469 164.9375 C 183.273438 163.410156 184.34375 162.125 185.570312 160.535156 C 186.386719 159.480469 186.535156 159.332031 187.71875 158.496094 C 190.875 156.21875 198.152344 151.277344 198.238281 151.363281 Z M 198.238281 151.363281 " clip-rule="nonzero"/></clipPath><radialGradient gradientTransform="matrix(-0.659161, -0.0990132, -0.200251, 1.318322, 74.013492, -60.918699)" gradientUnits="userSpaceOnUse" r="15.988044" cx="-253.094455" id="28412c0d7e" cy="129.555373" fx="-253.094455" fy="129.555373"><stop stop-opacity="1" stop-color="rgb(93.193054%, 20.762634%, 17.28363%)" offset="0"/><stop stop-opacity="1" stop-color="rgb(92.929077%, 20.671082%, 17.243958%)" offset="0.0078125"/><stop stop-opacity="1" stop-color="rgb(92.61322%, 20.559692%, 17.196655%)" offset="0.0195312"/><stop stop-opacity="1" stop-color="rgb(92.297363%, 20.449829%, 17.150879%)" offset="0.03125"/><stop stop-opacity="1" stop-color="rgb(91.97998%, 20.339966%, 17.103577%)" offset="0.0429688"/><stop stop-opacity="1" stop-color="rgb(91.664124%, 20.230103%, 17.056274%)" offset="0.0546875"/><stop stop-opacity="1" stop-color="rgb(91.348267%, 20.120239%, 17.008972%)" offset="0.0664062"/><stop stop-opacity="1" stop-color="rgb(91.030884%, 20.010376%, 16.963196%)" offset="0.078125"/><stop stop-opacity="1" stop-color="rgb(90.715027%, 19.898987%, 16.915894%)" offset="0.0898438"/><stop stop-opacity="1" stop-color="rgb(90.397644%, 19.789124%, 16.868591%)" offset="0.101562"/><stop stop-opacity="1" stop-color="rgb(90.081787%, 19.67926%, 16.822815%)" offset="0.113281"/><stop stop-opacity="1" stop-color="rgb(89.76593%, 19.569397%, 16.775513%)" offset="0.125"/><stop stop-opacity="1" stop-color="rgb(89.448547%, 19.459534%, 16.72821%)" offset="0.136719"/><stop stop-opacity="1" stop-color="rgb(89.13269%, 19.348145%, 16.680908%)" offset="0.148438"/><stop stop-opacity="1" stop-color="rgb(88.816833%, 19.238281%, 16.635132%)" offset="0.160156"/><stop stop-opacity="1" stop-color="rgb(88.499451%, 19.128418%, 16.58783%)" offset="0.171875"/><stop stop-opacity="1" stop-color="rgb(88.183594%, 19.018555%, 16.540527%)" offset="0.183594"/><stop stop-opacity="1" stop-color="rgb(87.867737%, 18.908691%, 16.494751%)" offset="0.195312"/><stop stop-opacity="1" stop-color="rgb(87.550354%, 18.797302%, 16.447449%)" offset="0.207031"/><stop stop-opacity="1" stop-color="rgb(87.234497%, 18.687439%, 16.400146%)" offset="0.21875"/><stop stop-opacity="1" stop-color="rgb(86.91864%, 18.577576%, 16.352844%)" offset="0.230469"/><stop stop-opacity="1" stop-color="rgb(86.601257%, 18.467712%, 16.307068%)" offset="0.242188"/><stop stop-opacity="1" stop-color="rgb(86.338806%, 18.37616%, 16.267395%)" offset="0.253906"/><stop stop-opacity="1" stop-color="rgb(86.126709%, 18.302917%, 16.236877%)" offset="0.261719"/><stop stop-opacity="1" stop-color="rgb(85.916138%, 18.228149%, 16.204834%)" offset="0.269531"/><stop stop-opacity="1" stop-color="rgb(85.705566%, 18.154907%, 16.174316%)" offset="0.277344"/><stop stop-opacity="1" stop-color="rgb(85.494995%, 18.081665%, 16.142273%)" offset="0.285156"/><stop stop-opacity="1" stop-color="rgb(85.282898%, 18.008423%, 16.111755%)" offset="0.292969"/><stop stop-opacity="1" stop-color="rgb(85.072327%, 17.935181%, 16.079712%)" offset="0.300781"/><stop stop-opacity="1" stop-color="rgb(84.861755%, 17.861938%, 16.049194%)" offset="0.308594"/><stop stop-opacity="1" stop-color="rgb(84.651184%, 17.788696%, 16.017151%)" offset="0.316406"/><stop stop-opacity="1" stop-color="rgb(84.439087%, 17.715454%, 15.986633%)" offset="0.324219"/><stop stop-opacity="1" stop-color="rgb(84.228516%, 17.640686%, 15.95459%)" offset="0.332031"/><stop stop-opacity="1" stop-color="rgb(84.017944%, 17.567444%, 15.924072%)" offset="0.339844"/><stop stop-opacity="1" stop-color="rgb(83.807373%, 17.494202%, 15.892029%)" offset="0.347656"/><stop stop-opacity="1" stop-color="rgb(83.595276%, 17.420959%, 15.861511%)" offset="0.355469"/><stop stop-opacity="1" stop-color="rgb(83.384705%, 17.347717%, 15.829468%)" offset="0.363281"/><stop stop-opacity="1" stop-color="rgb(83.174133%, 17.274475%, 15.79895%)" offset="0.371094"/><stop stop-opacity="1" stop-color="rgb(82.963562%, 17.201233%, 15.766907%)" offset="0.378906"/><stop stop-opacity="1" stop-color="rgb(82.751465%, 17.127991%, 15.736389%)" offset="0.386719"/><stop stop-opacity="1" stop-color="rgb(82.540894%, 17.053223%, 15.705872%)" offset="0.394531"/><stop stop-opacity="1" stop-color="rgb(82.330322%, 16.97998%, 15.673828%)" offset="0.402344"/><stop stop-opacity="1" stop-color="rgb(82.119751%, 16.906738%, 15.643311%)" offset="0.410156"/><stop stop-opacity="1" stop-color="rgb(81.90918%, 16.833496%, 15.611267%)" offset="0.417969"/><stop stop-opacity="1" stop-color="rgb(81.697083%, 16.760254%, 15.58075%)" offset="0.425781"/><stop stop-opacity="1" stop-color="rgb(81.486511%, 16.687012%, 15.548706%)" offset="0.433594"/><stop stop-opacity="1" stop-color="rgb(81.27594%, 16.61377%, 15.518188%)" offset="0.441406"/><stop stop-opacity="1" stop-color="rgb(81.065369%, 16.540527%, 15.486145%)" offset="0.449219"/><stop stop-opacity="1" stop-color="rgb(80.853271%, 16.465759%, 15.455627%)" offset="0.457031"/><stop stop-opacity="1" stop-color="rgb(80.6427%, 16.392517%, 15.423584%)" offset="0.464844"/><stop stop-opacity="1" stop-color="rgb(80.432129%, 16.319275%, 15.393066%)" offset="0.472656"/><stop stop-opacity="1" stop-color="rgb(80.221558%, 16.246033%, 15.361023%)" offset="0.480469"/><stop stop-opacity="1" stop-color="rgb(80.00946%, 16.172791%, 15.330505%)" offset="0.488281"/><stop stop-opacity="1" stop-color="rgb(79.798889%, 16.099548%, 15.298462%)" offset="0.496094"/><stop stop-opacity="1" stop-color="rgb(79.534912%, 16.007996%, 15.260315%)" offset="0.503906"/><stop stop-opacity="1" stop-color="rgb(79.219055%, 15.896606%, 15.213013%)" offset="0.515625"/><stop stop-opacity="1" stop-color="rgb(78.901672%, 15.786743%, 15.16571%)" offset="0.527344"/><stop stop-opacity="1" stop-color="rgb(78.585815%, 15.67688%, 15.118408%)" offset="0.539062"/><stop stop-opacity="1" stop-color="rgb(78.269958%, 15.567017%, 15.072632%)" offset="0.550781"/><stop stop-opacity="1" stop-color="rgb(77.952576%, 15.457153%, 15.02533%)" offset="0.5625"/><stop stop-opacity="1" stop-color="rgb(77.636719%, 15.345764%, 14.978027%)" offset="0.574219"/><stop stop-opacity="1" stop-color="rgb(77.320862%, 15.235901%, 14.932251%)" offset="0.585938"/><stop stop-opacity="1" stop-color="rgb(77.003479%, 15.126038%, 14.884949%)" offset="0.597656"/><stop stop-opacity="1" stop-color="rgb(76.687622%, 15.016174%, 14.837646%)" offset="0.609375"/><stop stop-opacity="1" stop-color="rgb(76.371765%, 14.906311%, 14.790344%)" offset="0.621094"/><stop stop-opacity="1" stop-color="rgb(76.107788%, 14.813232%, 14.752197%)" offset="0.632812"/><stop stop-opacity="1" stop-color="rgb(75.897217%, 14.73999%, 14.720154%)" offset="0.640625"/><stop stop-opacity="1" stop-color="rgb(75.68512%, 14.666748%, 14.689636%)" offset="0.648438"/><stop stop-opacity="1" stop-color="rgb(75.474548%, 14.593506%, 14.657593%)" offset="0.65625"/><stop stop-opacity="1" stop-color="rgb(75.263977%, 14.520264%, 14.627075%)" offset="0.664062"/><stop stop-opacity="1" stop-color="rgb(75.053406%, 14.447021%, 14.595032%)" offset="0.671875"/><stop stop-opacity="1" stop-color="rgb(74.841309%, 14.373779%, 14.564514%)" offset="0.679688"/><stop stop-opacity="1" stop-color="rgb(74.630737%, 14.300537%, 14.533997%)" offset="0.6875"/><stop stop-opacity="1" stop-color="rgb(74.420166%, 14.225769%, 14.501953%)" offset="0.695312"/><stop stop-opacity="1" stop-color="rgb(74.209595%, 14.152527%, 14.471436%)" offset="0.703125"/><stop stop-opacity="1" stop-color="rgb(73.999023%, 14.079285%, 14.439392%)" offset="0.710938"/><stop stop-opacity="1" stop-color="rgb(73.786926%, 14.006042%, 14.408875%)" offset="0.71875"/><stop stop-opacity="1" stop-color="rgb(73.576355%, 13.9328%, 14.376831%)" offset="0.726562"/><stop stop-opacity="1" stop-color="rgb(73.365784%, 13.859558%, 14.346313%)" offset="0.734375"/><stop stop-opacity="1" stop-color="rgb(73.155212%, 13.786316%, 14.31427%)" offset="0.742188"/><stop stop-opacity="1" stop-color="rgb(72.943115%, 13.713074%, 14.283752%)" offset="0.75"/><stop stop-opacity="1" stop-color="rgb(72.679138%, 13.619995%, 14.24408%)" offset="0.757812"/><stop stop-opacity="1" stop-color="rgb(72.363281%, 13.510132%, 14.196777%)" offset="0.769531"/><stop stop-opacity="1" stop-color="rgb(72.047424%, 13.400269%, 14.151001%)" offset="0.78125"/><stop stop-opacity="1" stop-color="rgb(71.730042%, 13.290405%, 14.103699%)" offset="0.792969"/><stop stop-opacity="1" stop-color="rgb(71.414185%, 13.180542%, 14.056396%)" offset="0.804688"/><stop stop-opacity="1" stop-color="rgb(71.150208%, 13.087463%, 14.01825%)" offset="0.816406"/><stop stop-opacity="1" stop-color="rgb(70.939636%, 13.014221%, 13.986206%)" offset="0.824219"/><stop stop-opacity="1" stop-color="rgb(70.729065%, 12.940979%, 13.955688%)" offset="0.832031"/><stop stop-opacity="1" stop-color="rgb(70.518494%, 12.867737%, 13.923645%)" offset="0.839844"/><stop stop-opacity="1" stop-color="rgb(70.306396%, 12.794495%, 13.893127%)" offset="0.847656"/><stop stop-opacity="1" stop-color="rgb(70.095825%, 12.721252%, 13.861084%)" offset="0.855469"/><stop stop-opacity="1" stop-color="rgb(69.885254%, 12.64801%, 13.830566%)" offset="0.863281"/><stop stop-opacity="1" stop-color="rgb(69.674683%, 12.574768%, 13.798523%)" offset="0.871094"/><stop stop-opacity="1" stop-color="rgb(69.410706%, 12.481689%, 13.760376%)" offset="0.878906"/><stop stop-opacity="1" stop-color="rgb(69.093323%, 12.371826%, 13.713074%)" offset="0.890625"/><stop stop-opacity="1" stop-color="rgb(68.777466%, 12.261963%, 13.665771%)" offset="0.902344"/><stop stop-opacity="1" stop-color="rgb(68.513489%, 12.17041%, 13.627625%)" offset="0.914062"/><stop stop-opacity="1" stop-color="rgb(68.302917%, 12.097168%, 13.595581%)" offset="0.921875"/><stop stop-opacity="1" stop-color="rgb(68.092346%, 12.023926%, 13.565063%)" offset="0.929688"/><stop stop-opacity="1" stop-color="rgb(67.881775%, 11.950684%, 13.53302%)" offset="0.9375"/><stop stop-opacity="1" stop-color="rgb(67.617798%, 11.857605%, 13.493347%)" offset="0.945312"/><stop stop-opacity="1" stop-color="rgb(67.353821%, 11.766052%, 13.4552%)" offset="0.957031"/><stop stop-opacity="1" stop-color="rgb(67.14325%, 11.69281%, 13.423157%)" offset="0.964844"/><stop stop-opacity="1" stop-color="rgb(66.879272%, 11.601257%, 13.38501%)" offset="0.972656"/><stop stop-opacity="1" stop-color="rgb(66.615295%, 11.509705%, 13.345337%)" offset="0.984375"/><stop stop-opacity="1" stop-color="rgb(66.404724%, 11.436462%, 13.314819%)" offset="0.992188"/><stop stop-opacity="1" stop-color="rgb(66.299438%, 11.399841%, 13.299561%)" offset="1"/></radialGradient><clipPath id="03d67ad08f"><path d="M 59.003906 221 L 316.253906 221 L 316.253906 292 L 59.003906 292 Z M 59.003906 221 " clip-rule="nonzero"/></clipPath></defs><rect x="-37.5" width="450" fill="#ffffff" y="-37.499999" height="449.999989" fill-opacity="1"/><rect x="-37.5" width="450" fill="#ffffff" y="-37.499999" height="449.999989" fill-opacity="1"/><g clip-path="url(#82ac004ec1)"><g clip-path="url(#de4913cd80)"><path fill="url(#79e3ba1058)" d="M 150.996094 225.511719 L 150.996094 149.863281 L 234.121094 149.863281 L 234.121094 225.511719 Z M 150.996094 225.511719 " fill-rule="nonzero"/></g></g><g clip-path="url(#a31f137379)"><g clip-path="url(#fe8cda70df)"><path fill="url(#69276e06bb)" d="M 173.113281 110.5 L 173.113281 83.574219 L 217.972656 83.574219 L 217.972656 110.5 Z M 173.113281 110.5 " fill-rule="nonzero"/></g></g><g clip-path="url(#fe69b645e1)"><g clip-path="url(#d7affea437)"><path fill="url(#28412c0d7e)" d="M 293.546875 100.289062 L 278.535156 199.113281 L 149.722656 179.765625 L 164.734375 80.941406 Z M 293.546875 100.289062 " fill-rule="nonzero"/></g></g><g clip-path="url(#03d67ad08f)"><path fill="#231f1f" d="M 105.25 240.28125 C 104.855469 240.28125 104.460938 240.316406 104.066406 240.316406 C 96.066406 240.746094 90.667969 244.265625 87.515625 251.140625 C 84.816406 257.359375 85.109375 265.488281 87.542969 271.746094 C 90.375 277.859375 94.949219 281.085938 102.582031 282.304688 C 104.199219 282.570312 105.28125 283.457031 108.410156 287.109375 L 112.261719 291.621094 L 119.242188 291.621094 L 114.597656 286.941406 C 112.035156 284.375 109.957031 282.140625 109.957031 281.945312 C 109.957031 281.746094 110.9375 281.316406 112.128906 280.953125 C 116.046875 279.769531 119.296875 276.742188 121.574219 272.105469 C 123.414062 268.378906 123.679688 267.230469 123.945312 262.59375 C 124.632812 248.800781 117.363281 240.175781 105.25 240.277344 Z M 111.375 276.351562 C 107.976562 277.996094 103.042969 278.324219 99.824219 277.144531 C 96.496094 275.921875 93.273438 272.464844 91.824219 268.550781 C 90.210938 264.269531 90.441406 256.375 92.285156 252.820312 C 95.246094 247.160156 99.164062 244.554688 104.890625 244.554688 C 113.378906 244.554688 118.210938 249.757812 118.839844 259.53125 C 119.339844 267.691406 116.609375 273.8125 111.375 276.347656 Z M 231.980469 252.0625 C 229.050781 252.0625 226.808594 253.246094 225.300781 255.582031 L 224.113281 257.433594 L 224.113281 252.625 L 219.046875 252.625 L 219.046875 281.457031 L 224.109375 281.457031 L 224.109375 272.242188 C 224.109375 263.8125 224.214844 262.828125 225.394531 260.523438 C 227.015625 257.359375 229.808594 255.785156 232.507812 256.539062 L 234.320312 257.066406 L 234.320312 252.070312 L 231.980469 252.070312 Z M 202.203125 251.796875 C 201.210938 251.796875 200.15625 251.929688 199.109375 252.160156 C 192.328125 253.933594 188.503906 260.425781 188.738281 267.105469 C 188.738281 272.699219 189.824219 275.496094 192.523438 278.425781 C 198.050781 282.964844 203.050781 283.324219 209.800781 280.890625 C 210.953125 280.402344 212.203125 279.835938 212.203125 279.835938 L 212.203125 275.296875 L 209.800781 276.542969 C 204.339844 278.921875 200.226562 278.921875 196.929688 276.121094 C 194.828125 273.980469 193.90625 271.414062 193.476562 268.488281 L 213.914062 268.488281 L 213.914062 264.597656 C 213.914062 256.675781 209.144531 251.667969 202.199219 251.796875 Z M 193.9375 264.441406 C 193.9375 264.441406 194.695312 259.496094 197.492188 257.558594 C 198.839844 256.605469 200.386719 256.144531 201.902344 256.144531 C 203.417969 256.144531 204.933594 256.636719 206.179688 257.589844 C 208.746094 259.566406 209.179688 264.402344 209.179688 264.402344 L 193.9375 264.402344 Z M 71.75 259.242188 C 66.257812 255.910156 63.816406 253.511719 64.117188 250.679688 C 64.96875 242.851562 74.644531 243.933594 80.003906 246.894531 L 80.042969 241.628906 C 80.042969 241.628906 77.078125 240.34375 72.835938 240.277344 C 66.320312 240.179688 62.109375 242.3125 60.136719 246.660156 C 57.238281 253.078125 59.804688 257.914062 69.078125 263.3125 C 74.289062 266.34375 76.589844 268.972656 76.589844 271.839844 C 76.589844 277.765625 69.445312 279.835938 62.074219 276.117188 C 60.558594 275.363281 59.273438 274.730469 59.207031 274.730469 C 58.941406 276.410156 59.078125 280.429688 59.078125 280.429688 C 59.078125 280.429688 61.34375 281.382812 64.738281 282.039062 C 73.164062 283.71875 80.828125 279.765625 81.550781 273.351562 C 82.183594 267.328125 80.003906 264.167969 71.75 259.234375 Z M 276.835938 251.730469 C 275.847656 251.730469 274.796875 251.867188 273.703125 252.097656 C 266.929688 253.871094 263.113281 260.359375 263.375 267.042969 C 263.375 272.625 264.457031 275.398438 267.15625 278.324219 C 272.683594 282.863281 277.683594 283.230469 284.46875 280.792969 C 285.613281 280.304688 286.863281 279.746094 286.863281 279.746094 L 286.863281 275.199219 L 284.464844 276.453125 C 278.992188 278.824219 274.878906 278.824219 271.59375 276.023438 C 269.480469 273.886719 268.5625 271.351562 268.136719 268.386719 L 288.539062 268.386719 L 288.539062 264.5 C 288.539062 256.613281 283.769531 251.605469 276.824219 251.738281 Z M 268.570312 264.371094 C 268.570312 264.371094 269.332031 259.4375 272.128906 257.457031 C 273.472656 256.503906 275.019531 256.042969 276.535156 256.042969 C 278.042969 256.042969 279.566406 256.535156 280.8125 257.492188 C 283.378906 259.464844 283.8125 264.339844 283.8125 264.339844 L 268.574219 264.339844 Z M 175.671875 259.304688 C 170.179688 255.984375 167.746094 253.574219 168.042969 250.746094 C 168.894531 242.910156 178.570312 243.996094 183.929688 246.960938 L 183.96875 241.691406 C 183.96875 241.691406 181.003906 240.410156 176.757812 240.347656 C 170.246094 240.25 166.035156 242.386719 164.058594 246.734375 C 161.164062 253.148438 163.761719 257.988281 173.007812 263.382812 C 178.210938 266.410156 180.511719 269.007812 180.511719 271.875 C 180.511719 277.800781 173.371094 279.902344 166 276.152344 C 164.492188 275.394531 163.207031 274.773438 163.132812 274.773438 C 162.867188 276.453125 163.003906 280.472656 163.003906 280.472656 C 163.003906 280.472656 165.242188 281.390625 168.628906 282.078125 C 177.058594 283.761719 184.726562 279.816406 185.449219 273.398438 C 186.074219 267.40625 183.902344 264.246094 175.671875 259.3125 Z M 306.617188 251.996094 C 303.6875 251.996094 301.417969 253.183594 299.9375 255.519531 L 298.75 257.359375 L 298.75 252.5625 L 293.683594 252.5625 L 293.683594 281.386719 L 298.746094 281.386719 L 298.746094 272.171875 C 298.746094 263.746094 298.847656 262.757812 300.03125 260.457031 C 301.652344 257.296875 304.445312 255.714844 307.144531 256.472656 L 308.957031 257.003906 L 308.957031 251.996094 Z M 135.367188 259.136719 L 135.367188 240.773438 L 130.257812 240.773438 L 130.257812 281.449219 L 151.746094 281.449219 L 151.746094 276.644531 L 135.367188 276.644531 Z M 253.535156 264.863281 L 249.324219 275.824219 L 245.273438 264.804688 L 241.160156 252.589844 L 235.929688 252.589844 C 239.320312 262.199219 243.007812 271.972656 246.722656 281.449219 C 248.335938 281.488281 249.949219 281.449219 251.5625 281.449219 L 257.25 267.167969 L 263.042969 252.59375 L 258.042969 252.59375 C 258.042969 252.59375 255.835938 258.382812 253.53125 264.867188 Z M 147.140625 229.691406 C 147.964844 229.691406 148.652344 229.425781 149.21875 228.859375 C 149.777344 228.300781 150.070312 227.644531 150.070312 226.824219 C 150.070312 226 149.777344 225.3125 149.21875 224.785156 C 148.652344 224.257812 148 223.992188 147.179688 223.992188 C 146.351562 223.992188 145.664062 224.257812 145.105469 224.816406 C 144.539062 225.375 144.28125 226.058594 144.28125 226.851562 C 144.28125 227.683594 144.546875 228.371094 145.105469 228.890625 C 145.632812 229.417969 146.320312 229.683594 147.140625 229.683594 Z M 145.332031 225.011719 C 145.820312 224.519531 146.417969 224.292969 147.179688 224.292969 C 147.898438 224.292969 148.492188 224.519531 148.992188 225.011719 C 149.480469 225.5 149.746094 226.097656 149.746094 226.824219 C 149.746094 227.546875 149.480469 228.171875 148.992188 228.664062 C 148.492188 229.152344 147.898438 229.386719 147.179688 229.386719 C 146.453125 229.386719 145.859375 229.160156 145.367188 228.664062 C 144.878906 228.171875 144.613281 227.546875 144.613281 226.824219 C 144.613281 226.097656 144.839844 225.5 145.332031 225.011719 Z M 146.550781 227.085938 L 146.882812 227.085938 C 147.117188 227.085938 147.347656 227.3125 147.542969 227.742188 L 147.9375 228.632812 L 148.5625 228.632812 L 148.070312 227.644531 C 147.871094 227.25 147.675781 227.019531 147.445312 226.953125 C 147.734375 226.886719 147.964844 226.789062 148.132812 226.589844 C 148.296875 226.421875 148.355469 226.191406 148.355469 225.929688 C 148.355469 225.628906 148.261719 225.402344 148.0625 225.238281 C 147.835938 225.046875 147.472656 224.945312 147.007812 224.945312 L 145.957031 224.945312 L 145.957031 228.632812 L 146.484375 228.632812 L 146.484375 227.085938 Z M 146.550781 225.375 L 147.011719 225.375 C 147.34375 225.375 147.578125 225.441406 147.703125 225.539062 C 147.828125 225.636719 147.863281 225.765625 147.863281 226 C 147.863281 226.425781 147.597656 226.625 147.109375 226.625 L 146.542969 226.625 L 146.542969 225.375 Z M 62.140625 226.757812 C 62.140625 225.476562 62.105469 224.519531 62.074219 223.957031 L 62.105469 223.957031 C 62.238281 224.621094 62.398438 225.117188 62.53125 225.445312 L 67.4375 236.402344 L 68.261719 236.402344 L 73.164062 225.347656 C 73.296875 225.046875 73.429688 224.59375 73.59375 223.960938 L 73.628906 223.960938 C 73.53125 225.054688 73.5 226.007812 73.5 226.765625 L 73.5 236.4375 L 75.175781 236.4375 L 75.175781 222.058594 L 73.070312 222.058594 L 68.5625 232.058594 C 68.394531 232.457031 68.164062 233.050781 67.871094 233.835938 L 67.804688 233.835938 C 67.703125 233.445312 67.472656 232.851562 67.144531 232.128906 L 62.738281 222.027344 L 60.5 222.027344 L 60.5 236.402344 L 62.117188 236.402344 L 62.117188 226.765625 Z M 78.855469 226.785156 L 80.304688 226.785156 L 80.304688 235.738281 L 78.855469 235.738281 Z M 79.582031 223.5 C 79.882812 223.5 80.140625 223.398438 80.335938 223.199219 C 80.535156 223.003906 80.667969 222.746094 80.667969 222.445312 C 80.667969 222.152344 80.570312 221.886719 80.339844 221.691406 C 80.136719 221.488281 79.875 221.386719 79.578125 221.386719 C 79.285156 221.386719 79.019531 221.488281 78.824219 221.691406 C 78.625 221.886719 78.492188 222.152344 78.492188 222.445312 C 78.492188 222.773438 78.59375 223.003906 78.824219 223.199219 C 79.050781 223.398438 79.285156 223.5 79.578125 223.5 Z M 90.640625 235.9375 L 90.640625 234.359375 C 89.847656 234.953125 88.992188 235.246094 88.109375 235.246094 C 87.054688 235.246094 86.199219 234.882812 85.570312 234.191406 C 84.949219 233.503906 84.617188 232.546875 84.617188 231.359375 C 84.617188 230.113281 84.949219 229.125 85.636719 228.371094 C 86.296875 227.644531 87.152344 227.28125 88.203125 227.28125 C 89.058594 227.28125 89.878906 227.546875 90.640625 228.074219 L 90.640625 226.398438 C 89.949219 226.035156 89.160156 225.867188 88.269531 225.867188 C 86.625 225.867188 85.339844 226.398438 84.382812 227.414062 C 83.429688 228.433594 82.941406 229.820312 82.941406 231.492188 C 82.941406 232.976562 83.367188 234.226562 84.253906 235.183594 C 85.179688 236.164062 86.359375 236.660156 87.808594 236.660156 C 88.929688 236.628906 89.847656 236.398438 90.640625 235.9375 Z M 94.785156 231.164062 C 94.785156 229.980469 95.050781 229.027344 95.542969 228.371094 C 96.003906 227.777344 96.558594 227.480469 97.222656 227.480469 C 97.78125 227.480469 98.175781 227.582031 98.464844 227.8125 L 98.464844 226.097656 C 98.238281 226 97.910156 225.964844 97.484375 225.964844 C 96.890625 225.964844 96.363281 226.164062 95.898438 226.53125 C 95.410156 226.921875 95.015625 227.511719 94.785156 228.269531 L 94.75 228.269531 L 94.75 226.164062 L 93.109375 226.164062 L 93.109375 236.429688 L 94.753906 236.429688 L 94.753906 231.164062 Z M 104.234375 236.632812 C 105.78125 236.632812 107.027344 236.136719 107.949219 235.148438 C 108.871094 234.167969 109.332031 232.84375 109.332031 231.199219 C 109.332031 229.519531 108.910156 228.238281 108.046875 227.28125 C 107.195312 226.328125 106.011719 225.867188 104.460938 225.867188 C 102.914062 225.867188 101.667969 226.328125 100.746094 227.21875 C 99.757812 228.199219 99.234375 229.585938 99.234375 231.363281 C 99.234375 232.910156 99.660156 234.191406 100.550781 235.148438 C 101.46875 236.136719 102.6875 236.628906 104.234375 236.628906 Z M 101.894531 228.273438 C 102.519531 227.609375 103.34375 227.28125 104.359375 227.28125 C 105.417969 227.28125 106.210938 227.609375 106.800781 228.273438 C 107.390625 228.960938 107.6875 229.949219 107.6875 231.265625 C 107.6875 232.515625 107.421875 233.503906 106.863281 234.164062 C 106.304688 234.851562 105.480469 235.21875 104.394531 235.21875 C 103.339844 235.21875 102.519531 234.851562 101.894531 234.164062 C 101.269531 233.46875 100.972656 232.515625 100.972656 231.265625 C 100.90625 230.019531 101.238281 229 101.894531 228.273438 Z M 116.535156 235.738281 C 117.164062 235.183594 117.496094 234.496094 117.496094 233.632812 C 117.496094 232.878906 117.230469 232.253906 116.738281 231.757812 C 116.339844 231.363281 115.722656 231.003906 114.828125 230.640625 C 114.035156 230.308594 113.542969 230.015625 113.277344 229.785156 C 113.015625 229.519531 112.851562 229.191406 112.851562 228.726562 C 112.851562 228.300781 113.019531 227.972656 113.34375 227.710938 C 113.675781 227.445312 114.097656 227.316406 114.664062 227.316406 C 115.550781 227.316406 116.308594 227.550781 117.003906 228.046875 L 117.003906 226.398438 C 116.339844 226.066406 115.617188 225.910156 114.796875 225.910156 C 113.738281 225.910156 112.847656 226.199219 112.191406 226.761719 C 111.5 227.320312 111.171875 228.046875 111.171875 228.898438 C 111.171875 229.652344 111.398438 230.28125 111.828125 230.738281 C 112.191406 231.132812 112.8125 231.53125 113.671875 231.890625 C 114.492188 232.253906 115.050781 232.582031 115.351562 232.84375 C 115.644531 233.109375 115.777344 233.4375 115.777344 233.828125 C 115.777344 234.785156 115.121094 235.28125 113.835938 235.28125 C 112.847656 235.28125 111.960938 234.957031 111.167969 234.300781 L 111.167969 236.070312 C 111.886719 236.503906 112.746094 236.699219 113.699219 236.699219 C 114.917969 236.632812 115.871094 236.335938 116.527344 235.742188 Z M 124.371094 225.867188 C 122.824219 225.867188 121.578125 226.328125 120.652344 227.21875 C 119.671875 228.199219 119.144531 229.585938 119.144531 231.363281 C 119.144531 232.910156 119.570312 234.195312 120.457031 235.148438 C 121.382812 236.136719 122.597656 236.632812 124.144531 236.632812 C 125.730469 236.632812 126.9375 236.132812 127.863281 235.144531 C 128.785156 234.164062 129.246094 232.84375 129.246094 231.195312 C 129.246094 229.515625 128.816406 228.234375 127.964844 227.277344 C 127.074219 226.324219 125.886719 225.863281 124.378906 225.863281 Z M 127.5625 231.265625 C 127.5625 232.515625 127.300781 233.503906 126.742188 234.164062 C 126.183594 234.851562 125.359375 235.21875 124.273438 235.21875 C 123.214844 235.21875 122.394531 234.851562 121.769531 234.164062 C 121.148438 233.46875 120.847656 232.515625 120.847656 231.265625 C 120.847656 229.945312 121.175781 228.925781 121.839844 228.238281 C 122.460938 227.582031 123.285156 227.25 124.304688 227.25 C 125.324219 227.25 126.144531 227.582031 126.738281 228.238281 C 127.265625 228.960938 127.558594 229.949219 127.558594 231.265625 Z M 132.007812 236.402344 L 133.652344 236.402344 L 133.652344 227.511719 L 136.054688 227.511719 L 136.054688 226.132812 L 133.652344 226.132812 L 133.652344 224.546875 C 133.652344 223.105469 134.207031 222.378906 135.363281 222.378906 C 135.753906 222.378906 136.148438 222.480469 136.441406 222.644531 L 136.441406 221.164062 C 136.148438 221.03125 135.753906 221 135.257812 221 C 134.371094 221 133.648438 221.265625 133.054688 221.824219 C 132.363281 222.480469 131.996094 223.332031 131.996094 224.488281 L 131.996094 226.171875 L 130.261719 226.171875 L 130.261719 227.550781 L 131.996094 227.550781 L 131.996094 236.40625 Z M 138.753906 233.601562 C 138.753906 235.609375 139.640625 236.632812 141.453125 236.632812 C 142.109375 236.632812 142.601562 236.527344 143 236.292969 L 143 234.878906 C 142.695312 235.105469 142.339844 235.210938 141.941406 235.210938 C 141.382812 235.210938 140.992188 235.078125 140.761719 234.78125 C 140.527344 234.488281 140.394531 233.988281 140.394531 233.300781 L 140.394531 227.507812 L 143 227.507812 L 143 226.128906 L 140.394531 226.128906 L 140.394531 223.101562 C 139.828125 223.296875 139.273438 223.464844 138.75 223.628906 L 138.75 226.128906 L 136.976562 226.128906 L 136.976562 227.507812 L 138.75 227.507812 L 138.75 233.597656 Z M 315.371094 252.523438 C 314.8125 251.996094 314.152344 251.730469 313.332031 251.730469 C 312.503906 251.730469 311.816406 251.996094 311.257812 252.558594 C 310.699219 253.117188 310.433594 253.804688 310.433594 254.597656 C 310.433594 255.421875 310.699219 256.109375 311.253906 256.636719 C 311.8125 257.164062 312.5 257.429688 313.328125 257.429688 C 314.148438 257.429688 314.839844 257.164062 315.40625 256.605469 C 315.960938 256.039062 316.253906 255.386719 316.253906 254.570312 C 316.222656 253.738281 315.925781 253.050781 315.367188 252.523438 Z M 315.105469 256.410156 C 314.617188 256.898438 314.019531 257.125 313.296875 257.125 C 312.578125 257.125 311.984375 256.898438 311.484375 256.410156 C 310.992188 255.910156 310.730469 255.289062 310.730469 254.5625 C 310.730469 253.84375 310.957031 253.246094 311.453125 252.75 C 311.945312 252.257812 312.539062 252.03125 313.296875 252.03125 C 314.011719 252.03125 314.609375 252.257812 315.105469 252.75 C 315.597656 253.246094 315.863281 253.84375 315.863281 254.5625 C 315.863281 255.324219 315.636719 255.910156 315.105469 256.410156 Z M 313.628906 254.730469 C 313.921875 254.664062 314.15625 254.53125 314.320312 254.367188 C 314.484375 254.199219 314.546875 253.96875 314.546875 253.703125 C 314.546875 253.410156 314.449219 253.175781 314.25 253.011719 C 314.023438 252.824219 313.660156 252.722656 313.195312 252.722656 L 312.144531 252.722656 L 312.144531 256.40625 L 312.675781 256.40625 L 312.675781 254.859375 L 313 254.859375 C 313.230469 254.859375 313.457031 255.085938 313.660156 255.515625 L 314.050781 256.402344 L 314.675781 256.402344 L 314.1875 255.414062 C 314.015625 254.984375 313.820312 254.785156 313.621094 254.722656 Z M 313.265625 254.398438 L 312.699219 254.398438 L 312.699219 253.152344 L 313.164062 253.152344 C 313.492188 253.152344 313.722656 253.214844 313.855469 253.316406 C 313.988281 253.414062 314.015625 253.542969 314.015625 253.777344 C 314.015625 254.203125 313.753906 254.398438 313.261719 254.398438 Z M 221.449219 225.707031 L 221.910156 225.707031 L 221.910156 222.019531 L 223.128906 222.019531 L 223.128906 221.558594 L 220.230469 221.558594 L 220.230469 222.019531 L 221.449219 222.019531 Z M 224.242188 222.933594 C 224.242188 222.578125 224.242188 222.28125 224.214844 222.117188 C 224.246094 222.3125 224.316406 222.445312 224.34375 222.542969 L 225.761719 225.707031 L 225.988281 225.707031 L 227.40625 222.511719 C 227.445312 222.414062 227.472656 222.285156 227.539062 222.117188 C 227.507812 222.445312 227.507812 222.707031 227.507812 222.910156 L 227.507812 225.703125 L 228 225.703125 L 228 221.558594 L 227.40625 221.558594 L 226.121094 224.417969 C 226.09375 224.519531 225.988281 224.71875 225.925781 224.945312 L 225.886719 224.945312 C 225.863281 224.816406 225.792969 224.683594 225.699219 224.457031 L 224.417969 221.558594 L 223.753906 221.558594 L 223.753906 225.710938 L 224.214844 225.710938 L 224.214844 222.941406 Z M 224.242188 222.933594 " fill-opacity="1" fill-rule="nonzero"/></g></svg>