<?xml version="1.0" encoding="UTF-8"?>
<!DOCTYPE svg PUBLIC "-//W3C//DTD SVG 1.1//EN" "http://www.w3.org/Graphics/SVG/1.1/DTD/svg11.dtd">
<svg xmlns="http://www.w3.org/2000/svg" version="1.1" width="800px" height="800px" style="shape-rendering:geometricPrecision; text-rendering:geometricPrecision; image-rendering:optimizeQuality; fill-rule:evenodd; clip-rule:evenodd" xmlns:xlink="http://www.w3.org/1999/xlink">
<g><path style="opacity:0.999" fill="#f3f1ec" d="M 320.5,271.5 C 373.168,271.333 425.834,271.5 478.5,272C 504.644,278.144 520.81,294.31 527,320.5C 527.667,373.167 527.667,425.833 527,478.5C 520.807,504.693 504.64,520.86 478.5,527C 425.833,527.667 373.167,527.667 320.5,527C 294.307,520.807 278.14,504.64 272,478.5C 271.333,425.833 271.333,373.167 272,320.5C 278.321,294.346 294.488,278.013 320.5,271.5 Z"/></g>
<g><path style="opacity:1" fill="#e3e3e3" d="M 420.5,332.5 C 411.111,331.42 401.777,329.92 392.5,328C 389.975,327.576 387.975,326.41 386.5,324.5C 391.934,320.029 398.1,316.696 405,314.5C 405.5,314.667 406,314.833 406.5,315C 403.167,316.667 399.833,318.333 396.5,320C 401.816,321.275 407.15,322.441 412.5,323.5C 413.206,321.234 413.039,318.901 412,316.5C 411.682,314.939 410.849,313.772 409.5,313C 410.448,312.517 411.448,312.351 412.5,312.5C 414.194,319.587 416.861,326.254 420.5,332.5 Z"/></g>
<g><path style="opacity:1" fill="#ad2a2b" d="M 386.5,324.5 C 387.975,326.41 389.975,327.576 392.5,328C 401.777,329.92 411.111,331.42 420.5,332.5C 436.127,334.431 450.794,339.265 464.5,347C 468.725,350.722 472.392,354.888 475.5,359.5C 441.947,366.294 409.947,377.128 379.5,392C 386.799,385.578 393.299,378.411 399,370.5C 404.4,360.981 404.734,351.315 400,341.5C 395.7,336.199 391.034,331.199 386,326.5C 385.308,325.563 385.475,324.897 386.5,324.5 Z"/></g>
<g><path style="opacity:1" fill="#f2ece7" d="M 393.5,331.5 C 394.884,330.199 396.384,330.199 398,331.5C 399.309,333.747 399.975,336.08 400,338.5C 398.281,335.712 396.115,333.379 393.5,331.5 Z"/></g>
<g><path style="opacity:1" fill="#f2ece7" d="M 399.5,332.5 C 399.56,331.957 399.893,331.624 400.5,331.5C 404.496,332.499 408.496,333.499 412.5,334.5C 409.391,336.475 406.557,338.808 404,341.5C 402.47,338.439 400.97,335.439 399.5,332.5 Z"/></g>
<g><path style="opacity:1" fill="#f3efea" d="M 414.5,334.5 C 416.579,338.236 416.912,342.236 415.5,346.5C 412.204,345.235 408.871,344.068 405.5,343C 408.396,339.934 411.396,337.101 414.5,334.5 Z"/></g>
<g><path style="opacity:1" fill="#f2ebe6" d="M 423.5,343.5 C 422.167,344.167 420.833,344.833 419.5,345.5C 418.513,342.287 417.513,338.954 416.5,335.5C 422.061,335.645 427.728,336.478 433.5,338C 429.944,339.608 426.611,341.441 423.5,343.5 Z"/></g>
<g><path style="opacity:1" fill="#f1e8e4" d="M 429.5,352.5 C 426.527,351.013 423.527,349.513 420.5,348C 422.24,346.483 423.906,344.983 425.5,343.5C 428.758,342.092 431.924,340.426 435,338.5C 434.566,343.704 432.732,348.371 429.5,352.5 Z"/></g>
<g><path style="opacity:1" fill="#f2ece7" d="M 436.5,338.5 C 442.906,340.358 449.239,342.524 455.5,345C 448.491,346.627 441.657,348.794 435,351.5C 434.5,351.167 434,350.833 433.5,350.5C 435.326,346.693 436.326,342.693 436.5,338.5 Z"/></g>
<g><path style="opacity:1" fill="#f1e9e4" d="M 404.5,346.5 C 407.696,346.899 410.696,347.899 413.5,349.5C 410.85,352.651 408.016,355.651 405,358.5C 404.501,354.514 404.334,350.514 404.5,346.5 Z"/></g>
<g><path style="opacity:1" fill="#f2eee9" d="M 454.5,346.5 C 455.239,346.369 455.906,346.536 456.5,347C 451.993,353.002 447.326,358.835 442.5,364.5C 439.683,361.182 436.683,358.015 433.5,355C 440.457,351.853 447.457,349.019 454.5,346.5 Z"/></g>
<g><path style="opacity:1" fill="#f3eee9" d="M 457.5,346.5 C 463.709,349.45 469.042,353.617 473.5,359C 464.041,360.464 454.707,362.131 445.5,364C 450.918,359.092 454.918,353.258 457.5,346.5 Z"/></g>
<g><path style="opacity:1" fill="#f3ede8" d="M 414.5,361.5 C 414.5,360.833 414.5,360.167 414.5,359.5C 416.328,356.865 417.495,353.865 418,350.5C 420.754,352.127 423.588,353.627 426.5,355C 422.357,356.994 418.357,359.161 414.5,361.5 Z"/></g>
<g><path style="opacity:1" fill="#f1e9e4" d="M 415.5,351.5 C 414.962,353.117 414.629,354.784 414.5,356.5C 413.295,359.234 411.795,361.901 410,364.5C 408.5,363 407,361.5 405.5,360C 408.412,356.581 411.746,353.748 415.5,351.5 Z"/></g>
<g><path style="opacity:1" fill="#f2ece8" d="M 419.5,369.5 C 422.861,367.105 425.528,364.105 427.5,360.5C 428.265,359.34 429.265,358.34 430.5,357.5C 433.975,359.808 437.308,362.308 440.5,365C 433.03,368.158 425.363,370.492 417.5,372C 418.381,371.292 419.047,370.458 419.5,369.5 Z"/></g>
<g><path style="opacity:1" fill="#f2eae5" d="M 419.5,367.5 C 417.901,369.604 416.068,371.604 414,373.5C 413.625,371 412.792,368.667 411.5,366.5C 412.901,365.479 414.235,364.479 415.5,363.5C 418.719,361.973 421.885,360.307 425,358.5C 425.667,359.167 425.667,359.833 425,360.5C 422.675,362.501 420.842,364.834 419.5,367.5 Z"/></g>
<g><path style="opacity:1" fill="#c62b29" d="M 423.5,343.5 C 424.167,343.5 424.833,343.5 425.5,343.5C 423.906,344.983 422.24,346.483 420.5,348C 423.527,349.513 426.527,351.013 429.5,352.5C 428.361,355.004 427.694,357.67 427.5,360.5C 425.528,364.105 422.861,367.105 419.5,369.5C 419.5,368.833 419.5,368.167 419.5,367.5C 420.842,364.834 422.675,362.501 425,360.5C 425.667,359.833 425.667,359.167 425,358.5C 421.885,360.307 418.719,361.973 415.5,363.5C 414.662,363.158 414.328,362.492 414.5,361.5C 418.357,359.161 422.357,356.994 426.5,355C 423.588,353.627 420.754,352.127 418,350.5C 417.495,353.865 416.328,356.865 414.5,359.5C 414.5,358.5 414.5,357.5 414.5,356.5C 414.629,354.784 414.962,353.117 415.5,351.5C 416.037,348.964 417.37,346.964 419.5,345.5C 420.833,344.833 422.167,344.167 423.5,343.5 Z"/></g>
<g><path style="opacity:1" fill="#f1e9e4" d="M 403.5,363.5 C 404.973,364.072 406.307,364.905 407.5,366C 405.241,367.715 403.074,369.548 401,371.5C 401.491,368.819 402.324,366.153 403.5,363.5 Z"/></g>
<g><path style="opacity:1" fill="#f1e9e4" d="M 409.5,368.5 C 411.534,370.365 412.201,372.532 411.5,375C 406.939,377.296 402.272,378.963 397.5,380C 402.002,376.664 406.002,372.831 409.5,368.5 Z"/></g>
<g><path style="opacity:1" fill="#eee1dd" d="M 403.5,370.5 C 404.239,370.369 404.906,370.536 405.5,371C 402.222,375.319 398.222,378.319 393.5,380C 396.675,376.595 400.008,373.429 403.5,370.5 Z"/></g>
<g><path style="opacity:1" fill="#97a2ae" d="M 379.5,417.5 C 379.735,418.097 380.235,418.43 381,418.5C 391.991,415.954 392.157,416.454 381.5,420C 385.726,421.943 389.726,424.11 393.5,426.5C 384.171,425.917 376.337,421.917 370,414.5C 366.61,406.821 368.443,400.488 375.5,395.5C 375.833,395.667 376.167,395.833 376.5,396C 373.545,398.581 372.045,401.747 372,405.5C 375.336,403.791 378.836,402.957 382.5,403C 378.573,404.222 374.907,405.889 371.5,408C 372.599,412.591 375.266,415.758 379.5,417.5 Z"/></g>
<g><path style="opacity:1" fill="#a6afb8" d="M 379.5,417.5 C 381.362,413.458 383.862,409.792 387,406.5C 385.59,410.772 383.09,414.439 379.5,417.5 Z"/></g>
<g><path style="opacity:1" fill="#312e2d" d="M 296.5,436.5 C 295.442,435.4 294.608,434.066 294,432.5C 293.818,435.226 293.318,437.893 292.5,440.5C 291.167,436.5 291.167,432.5 292.5,428.5C 294.887,430.607 296.22,433.273 296.5,436.5 Z"/></g>
<g><path style="opacity:1" fill="#231f1f" d="M 301.5,431.5 C 301.461,430.244 301.961,429.244 303,428.5C 303.667,432.5 303.667,436.5 303,440.5C 302.819,437.305 302.319,434.305 301.5,431.5 Z"/></g>
<g><path style="opacity:1" fill="#34302f" d="M 307.5,427.5 C 308.773,428.077 308.773,428.743 307.5,429.5C 306.537,429.03 306.537,428.363 307.5,427.5 Z"/></g>
<g><path style="opacity:1" fill="#272323" d="M 352.5,427.5 C 353.552,427.351 354.552,427.517 355.5,428C 352.311,428.981 351.978,430.314 354.5,432C 352.834,434.48 352.001,437.313 352,440.5C 351.782,437.574 351.282,434.74 350.5,432C 351.267,430.53 351.933,429.03 352.5,427.5 Z"/></g>
<g><path style="opacity:1" fill="#282424" d="M 357.5,429.5 C 358.309,430.469 359.309,431.302 360.5,432C 357.833,434.667 357.833,437.333 360.5,440C 359.552,440.483 358.552,440.649 357.5,440.5C 357.988,437.289 357.321,434.456 355.5,432C 356.756,431.583 357.423,430.75 357.5,429.5 Z"/></g>
<g><path style="opacity:1" fill="#2f2b2b" d="M 312.5,431.5 C 316.893,431.457 317.226,431.957 313.5,433C 310.582,436.795 311.582,439.128 316.5,440C 311.504,440.664 309.67,438.498 311,433.5C 311.717,432.956 312.217,432.289 312.5,431.5 Z"/></g>
<g><path style="opacity:1" fill="#302c2c" d="M 335.5,435.5 C 333.983,432.505 334.983,431.339 338.5,432C 336.574,432.422 335.574,433.589 335.5,435.5 Z"/></g>
<g><path style="opacity:1" fill="#494544" d="M 318.5,431.5 C 319.94,432.363 321.274,432.363 322.5,431.5C 322.833,431.833 323.167,432.167 323.5,432.5C 322.675,433.386 321.675,433.719 320.5,433.5C 320.808,435.924 320.474,438.257 319.5,440.5C 318.516,437.572 318.183,434.572 318.5,431.5 Z"/></g>
<g><path style="opacity:1" fill="#2e2a29" d="M 330.5,439.5 C 324.997,441.494 323.164,439.494 325,433.5C 330.519,430.334 332.852,432.001 332,438.5C 331.617,439.056 331.117,439.389 330.5,439.5 Z"/></g>
<g><path style="opacity:1" fill="#e6e4df" d="M 330.5,439.5 C 326.323,440.158 324.823,438.492 326,434.5C 328.514,431.823 330.347,432.323 331.5,436C 331.011,437.138 330.678,438.305 330.5,439.5 Z"/></g>
<g><path style="opacity:1" fill="#2f2b2b" d="M 301.5,431.5 C 301.293,434.241 300.293,436.574 298.5,438.5C 298.707,435.759 299.707,433.426 301.5,431.5 Z"/></g>
<g><path style="opacity:1" fill="#2d2929" d="M 343.5,432.5 C 346.893,430.719 348.893,431.886 349.5,436C 348.49,440.337 345.99,441.503 342,439.5C 339.755,436.43 340.255,434.096 343.5,432.5 Z"/></g>
<g><path style="opacity:1" fill="#efede8" d="M 343.5,432.5 C 347.473,433.075 348.473,435.242 346.5,439C 345.216,439.684 344.049,439.517 343,438.5C 342.322,436.402 342.489,434.402 343.5,432.5 Z"/></g>
<g><path style="opacity:1" fill="#272323" d="M 296.5,436.5 C 297.167,437.167 297.833,437.833 298.5,438.5C 298.631,439.239 298.464,439.906 298,440.5C 296.812,439.437 296.312,438.103 296.5,436.5 Z"/></g>
<g><path style="opacity:1" fill="#2d2a29" d="M 335.5,435.5 C 338.764,435.726 339.764,437.226 338.5,440C 333.999,440.663 333.665,440.163 337.5,438.5C 336.807,437.482 336.141,436.482 335.5,435.5 Z"/></g>
<g><path style="opacity:1" fill="#292525" d="M 298.5,443.5 C 301.86,443.616 305.193,443.949 308.5,444.5C 308.66,446.199 308.494,447.866 308,449.5C 304.704,447.696 301.204,447.196 297.5,448C 293.294,451.735 293.627,455.068 298.5,458C 303.976,460.471 307.643,464.471 309.5,470C 308.302,475.944 304.635,479.111 298.5,479.5C 296.116,478.988 293.783,478.321 291.5,477.5C 290.369,475.926 290.202,474.259 291,472.5C 295.196,475.748 299.529,476.081 304,473.5C 306.105,470.989 305.938,468.656 303.5,466.5C 301.007,464.42 298.341,462.586 295.5,461C 288.334,453.67 289.334,447.837 298.5,443.5 Z"/></g>
<g><path style="opacity:1" fill="#272323" d="M 325.5,443.5 C 340.981,444.08 347.148,452.08 344,467.5C 342.231,472.935 338.731,476.768 333.5,479C 335.684,481.016 337.684,483.183 339.5,485.5C 337.926,486.631 336.259,486.798 334.5,486C 332.167,483.667 329.833,481.333 327.5,479C 317.598,477.244 312.598,471.244 312.5,461C 312.629,451.865 316.962,446.032 325.5,443.5 Z"/></g>
<g><path style="opacity:1" fill="#272323" d="M 385.5,443.5 C 388.518,443.704 391.518,444.037 394.5,444.5C 394.5,445.833 394.5,447.167 394.5,448.5C 391.201,447.624 387.868,447.457 384.5,448C 382.876,449.117 381.876,450.617 381.5,452.5C 382.559,455.068 384.226,457.235 386.5,459C 391.617,461.114 394.95,464.781 396.5,470C 395.198,475.797 391.531,478.964 385.5,479.5C 383.181,478.936 380.847,478.436 378.5,478C 377.424,476.274 377.257,474.441 378,472.5C 383.77,477.063 388.603,476.397 392.5,470.5C 392,469.5 391.5,468.5 391,467.5C 386.204,463.947 381.87,459.947 378,455.5C 376.718,449.053 379.218,445.053 385.5,443.5 Z"/></g>
<g><path style="opacity:1" fill="#242020" d="M 350.5,444.5 C 351.833,444.5 353.167,444.5 354.5,444.5C 354.5,454.5 354.5,464.5 354.5,474.5C 358.833,474.5 363.167,474.5 367.5,474.5C 367.5,475.833 367.5,477.167 367.5,478.5C 361.833,478.5 356.167,478.5 350.5,478.5C 350.5,467.167 350.5,455.833 350.5,444.5 Z"/></g>
<g><path style="opacity:1" fill="#f1efeb" d="M 324.5,447.5 C 332.544,445.766 337.71,448.766 340,456.5C 342.319,465.267 339.485,471.434 331.5,475C 325.035,476.018 320.535,473.518 318,467.5C 315.612,459.094 317.778,452.427 324.5,447.5 Z"/></g>
<g><path style="opacity:1" fill="#272323" d="M 406.5,453.5 C 416.661,452.663 420.995,457.33 419.5,467.5C 414.167,467.5 408.833,467.5 403.5,467.5C 405.174,475.689 409.84,477.689 417.5,473.5C 418.429,474.689 418.762,476.022 418.5,477.5C 401.998,480.834 396.164,474.501 401,458.5C 402.73,456.598 404.563,454.931 406.5,453.5 Z"/></g>
<g><path style="opacity:1" fill="#242020" d="M 432.5,453.5 C 433.833,453.5 435.167,453.5 436.5,453.5C 436.5,454.833 436.5,456.167 436.5,457.5C 432.818,456.725 430.318,458.059 429,461.5C 428.501,467.157 428.334,472.824 428.5,478.5C 427.167,478.5 425.833,478.5 424.5,478.5C 424.5,470.5 424.5,462.5 424.5,454.5C 425.833,454.5 427.167,454.5 428.5,454.5C 428.351,455.552 428.517,456.552 429,457.5C 429.69,455.65 430.856,454.316 432.5,453.5 Z"/></g>
<g><path style="opacity:1" fill="#282424" d="M 468.5,453.5 C 478.781,452.448 483.448,457.115 482.5,467.5C 476.833,467.5 471.167,467.5 465.5,467.5C 467.614,475.572 472.447,477.572 480,473.5C 480.783,475.433 480.283,476.933 478.5,478C 465,480.5 459.5,475 462,461.5C 463.305,458.039 465.471,455.372 468.5,453.5 Z"/></g>
<g><path style="opacity:1" fill="#252121" d="M 494.5,453.5 C 496.167,453.5 497.833,453.5 499.5,453.5C 499.5,454.833 499.5,456.167 499.5,457.5C 495.317,456.846 492.484,458.512 491,462.5C 490.501,467.823 490.334,473.156 490.5,478.5C 489.167,478.5 487.833,478.5 486.5,478.5C 486.5,470.5 486.5,462.5 486.5,454.5C 487.833,454.5 489.167,454.5 490.5,454.5C 490.351,455.552 490.517,456.552 491,457.5C 492.376,456.295 493.542,454.962 494.5,453.5 Z"/></g>
<g><path style="opacity:1" fill="#272323" d="M 438.5,455.5 C 439.919,454.549 441.585,454.216 443.5,454.5C 444.78,460.841 446.947,466.841 450,472.5C 452.069,466.794 454.235,461.128 456.5,455.5C 457.833,454.167 459.167,454.167 460.5,455.5C 458,461.833 455.5,468.167 453,474.5C 452.084,477.959 450.084,478.959 447,477.5C 444.433,469.95 441.6,462.616 438.5,455.5 Z"/></g>
<g><path style="opacity:1" fill="#a4a29e" d="M 500.5,454.5 C 501.94,455.363 503.274,455.363 504.5,454.5C 505.914,457.59 504.914,458.757 501.5,458C 500.663,456.989 500.33,455.822 500.5,454.5 Z"/></g>
<g><path style="opacity:1" fill="#f2f0eb" d="M 415.5,462.5 C 411.702,463.483 407.702,463.817 403.5,463.5C 404.625,457.908 407.958,456.074 413.5,458C 414.582,459.33 415.249,460.83 415.5,462.5 Z"/></g>
<g><path style="opacity:1" fill="#ebe9e5" d="M 470.5,456.5 C 474.585,456.582 477.252,458.582 478.5,462.5C 474.205,463.661 469.871,463.828 465.5,463C 466.594,460.273 468.26,458.107 470.5,456.5 Z"/></g>
<g><path style="opacity:1" fill="#7a7775" d="M 415.5,462.5 C 416.043,462.56 416.376,462.893 416.5,463.5C 412.016,464.811 407.683,464.811 403.5,463.5C 407.702,463.817 411.702,463.483 415.5,462.5 Z"/></g>
</svg>
