<?xml version="1.0" encoding="UTF-8"?>
<!DOCTYPE svg PUBLIC "-//W3C//DTD SVG 1.1//EN" "http://www.w3.org/Graphics/SVG/1.1/DTD/svg11.dtd">
<svg xmlns="http://www.w3.org/2000/svg" version="1.1" width="252px" height="254px" style="shape-rendering:geometricPrecision; text-rendering:geometricPrecision; image-rendering:optimizeQuality; fill-rule:evenodd; clip-rule:evenodd" xmlns:xlink="http://www.w3.org/1999/xlink">
<g><path style="opacity:0.999" fill="#f3f1ec" d="M 40.5,-0.5 C 96.1667,-0.5 151.833,-0.5 207.5,-0.5C 229.371,6.37044 244.038,20.7038 251.5,42.5C 251.5,98.5 251.5,154.5 251.5,210.5C 244.141,231.859 229.807,246.193 208.5,253.5C 152.5,253.5 96.5,253.5 40.5,253.5C 21.4448,247.11 7.77809,234.777 -0.5,216.5C -0.5,156.5 -0.5,96.5 -0.5,36.5C 7.77809,18.2231 21.4448,5.88979 40.5,-0.5 Z"/></g>
<g><path style="opacity:1" fill="#e3e3e3" d="M 145.5,59.5 C 136.111,58.4204 126.777,56.9204 117.5,55C 114.975,54.5762 112.975,53.4095 111.5,51.5C 116.934,47.0295 123.1,43.6961 130,41.5C 130.5,41.6667 131,41.8333 131.5,42C 128.167,43.6667 124.833,45.3333 121.5,47C 126.816,48.2746 132.15,49.4413 137.5,50.5C 138.206,48.2343 138.039,45.9009 137,43.5C 136.682,41.9391 135.849,40.7724 134.5,40C 135.448,39.5172 136.448,39.3505 137.5,39.5C 139.194,46.5871 141.861,53.2537 145.5,59.5 Z"/></g>
<g><path style="opacity:1" fill="#ad2a2b" d="M 111.5,51.5 C 112.975,53.4095 114.975,54.5762 117.5,55C 126.777,56.9204 136.111,58.4204 145.5,59.5C 161.127,61.4313 175.794,66.2646 189.5,74C 193.725,77.7218 197.392,81.8885 200.5,86.5C 166.947,93.2945 134.947,104.128 104.5,119C 111.799,112.578 118.299,105.411 124,97.5C 129.4,87.9815 129.734,78.3148 125,68.5C 120.7,63.1988 116.034,58.1988 111,53.5C 110.308,52.5632 110.475,51.8966 111.5,51.5 Z"/></g>
<g><path style="opacity:1" fill="#f2ece7" d="M 118.5,58.5 C 119.884,57.1991 121.384,57.1991 123,58.5C 124.309,60.7467 124.975,63.0801 125,65.5C 123.281,62.7121 121.115,60.3788 118.5,58.5 Z"/></g>
<g><path style="opacity:1" fill="#f2ece7" d="M 124.5,59.5 C 124.56,58.9569 124.893,58.6236 125.5,58.5C 129.496,59.4993 133.496,60.4993 137.5,61.5C 134.391,63.475 131.557,65.8084 129,68.5C 127.47,65.4392 125.97,62.4392 124.5,59.5 Z"/></g>
<g><path style="opacity:1" fill="#f3efea" d="M 139.5,61.5 C 141.579,65.2355 141.912,69.2355 140.5,73.5C 137.204,72.2347 133.871,71.0681 130.5,70C 133.396,66.9343 136.396,64.1009 139.5,61.5 Z"/></g>
<g><path style="opacity:1" fill="#f2ebe6" d="M 148.5,70.5 C 147.167,71.1667 145.833,71.8333 144.5,72.5C 143.513,69.2869 142.513,65.9535 141.5,62.5C 147.061,62.6449 152.728,63.4782 158.5,65C 154.944,66.6076 151.611,68.4409 148.5,70.5 Z"/></g>
<g><path style="opacity:1" fill="#f1e8e4" d="M 154.5,79.5 C 151.527,78.0133 148.527,76.5133 145.5,75C 147.24,73.483 148.906,71.983 150.5,70.5C 153.758,69.0924 156.924,67.4257 160,65.5C 159.566,70.7039 157.732,75.3706 154.5,79.5 Z"/></g>
<g><path style="opacity:1" fill="#f2ece7" d="M 161.5,65.5 C 167.906,67.3578 174.239,69.5245 180.5,72C 173.491,73.6271 166.657,75.7937 160,78.5C 159.5,78.1667 159,77.8333 158.5,77.5C 160.326,73.6928 161.326,69.6928 161.5,65.5 Z"/></g>
<g><path style="opacity:1" fill="#f1e9e4" d="M 129.5,73.5 C 132.696,73.8986 135.696,74.8986 138.5,76.5C 135.85,79.6511 133.016,82.6511 130,85.5C 129.501,81.5138 129.334,77.5138 129.5,73.5 Z"/></g>
<g><path style="opacity:1" fill="#f2eee9" d="M 179.5,73.5 C 180.239,73.369 180.906,73.5357 181.5,74C 176.993,80.002 172.326,85.8354 167.5,91.5C 164.683,88.1822 161.683,85.0155 158.5,82C 165.457,78.8528 172.457,76.0194 179.5,73.5 Z"/></g>
<g><path style="opacity:1" fill="#f3eee9" d="M 182.5,73.5 C 188.709,76.4504 194.042,80.6171 198.5,86C 189.041,87.4644 179.707,89.1311 170.5,91C 175.918,86.0916 179.918,80.2582 182.5,73.5 Z"/></g>
<g><path style="opacity:1" fill="#f3ede8" d="M 139.5,88.5 C 139.5,87.8333 139.5,87.1667 139.5,86.5C 141.328,83.865 142.495,80.865 143,77.5C 145.754,79.1274 148.588,80.6274 151.5,82C 147.357,83.9941 143.357,86.1608 139.5,88.5 Z"/></g>
<g><path style="opacity:1" fill="#f1e9e4" d="M 140.5,78.5 C 139.962,80.1172 139.629,81.7839 139.5,83.5C 138.295,86.2341 136.795,88.9007 135,91.5C 133.5,90 132,88.5 130.5,87C 133.412,83.581 136.746,80.7476 140.5,78.5 Z"/></g>
<g><path style="opacity:1" fill="#f2ece8" d="M 144.5,96.5 C 147.861,94.1051 150.528,91.1051 152.5,87.5C 153.265,86.3398 154.265,85.3398 155.5,84.5C 158.975,86.8076 162.308,89.3076 165.5,92C 158.03,95.1582 150.363,97.4915 142.5,99C 143.381,98.2917 144.047,97.4584 144.5,96.5 Z"/></g>
<g><path style="opacity:1" fill="#f2eae5" d="M 144.5,94.5 C 142.901,96.6038 141.068,98.6038 139,100.5C 138.625,97.9999 137.792,95.6666 136.5,93.5C 137.901,92.4793 139.235,91.4793 140.5,90.5C 143.719,88.9735 146.885,87.3068 150,85.5C 150.667,86.1667 150.667,86.8333 150,87.5C 147.675,89.5008 145.842,91.8342 144.5,94.5 Z"/></g>
<g><path style="opacity:1" fill="#c62b29" d="M 148.5,70.5 C 149.167,70.5 149.833,70.5 150.5,70.5C 148.906,71.983 147.24,73.483 145.5,75C 148.527,76.5133 151.527,78.0133 154.5,79.5C 153.361,82.0037 152.694,84.6703 152.5,87.5C 150.528,91.1051 147.861,94.1051 144.5,96.5C 144.5,95.8333 144.5,95.1667 144.5,94.5C 145.842,91.8342 147.675,89.5008 150,87.5C 150.667,86.8333 150.667,86.1667 150,85.5C 146.885,87.3068 143.719,88.9735 140.5,90.5C 139.662,90.1583 139.328,89.4916 139.5,88.5C 143.357,86.1608 147.357,83.9941 151.5,82C 148.588,80.6274 145.754,79.1274 143,77.5C 142.495,80.865 141.328,83.865 139.5,86.5C 139.5,85.5 139.5,84.5 139.5,83.5C 139.629,81.7839 139.962,80.1172 140.5,78.5C 141.037,75.9641 142.37,73.9641 144.5,72.5C 145.833,71.8333 147.167,71.1667 148.5,70.5 Z"/></g>
<g><path style="opacity:1" fill="#f1e9e4" d="M 128.5,90.5 C 129.973,91.072 131.307,91.9054 132.5,93C 130.241,94.7146 128.074,96.5479 126,98.5C 126.491,95.8195 127.324,93.1528 128.5,90.5 Z"/></g>
<g><path style="opacity:1" fill="#f1e9e4" d="M 134.5,95.5 C 136.534,97.3651 137.201,99.5318 136.5,102C 131.939,104.296 127.272,105.963 122.5,107C 127.002,103.664 131.002,99.8309 134.5,95.5 Z"/></g>
<g><path style="opacity:1" fill="#eee1dd" d="M 128.5,97.5 C 129.239,97.369 129.906,97.5357 130.5,98C 127.222,102.319 123.222,105.319 118.5,107C 121.675,103.595 125.008,100.429 128.5,97.5 Z"/></g>
<g><path style="opacity:1" fill="#97a2ae" d="M 104.5,144.5 C 104.735,145.097 105.235,145.43 106,145.5C 116.991,142.954 117.157,143.454 106.5,147C 110.726,148.943 114.726,151.11 118.5,153.5C 109.171,152.917 101.337,148.917 95,141.5C 91.6096,133.821 93.4429,127.488 100.5,122.5C 100.833,122.667 101.167,122.833 101.5,123C 98.5453,125.581 97.0453,128.747 97,132.5C 100.336,130.791 103.836,129.957 107.5,130C 103.573,131.222 99.9066,132.889 96.5,135C 97.5993,139.591 100.266,142.758 104.5,144.5 Z"/></g>
<g><path style="opacity:1" fill="#a6afb8" d="M 104.5,144.5 C 106.362,140.458 108.862,136.792 112,133.5C 110.59,137.772 108.09,141.439 104.5,144.5 Z"/></g>
<g><path style="opacity:1" fill="#312e2d" d="M 21.5,163.5 C 20.4415,162.4 19.6082,161.066 19,159.5C 18.8184,162.226 18.3184,164.893 17.5,167.5C 16.1667,163.5 16.1667,159.5 17.5,155.5C 19.8868,157.607 21.2201,160.273 21.5,163.5 Z"/></g>
<g><path style="opacity:1" fill="#231f1f" d="M 26.5,158.5 C 26.4614,157.244 26.9614,156.244 28,155.5C 28.6667,159.5 28.6667,163.5 28,167.5C 27.8195,164.305 27.3195,161.305 26.5,158.5 Z"/></g>
<g><path style="opacity:1" fill="#34302f" d="M 32.5,154.5 C 33.7733,155.077 33.7733,155.743 32.5,156.5C 31.537,156.03 31.537,155.363 32.5,154.5 Z"/></g>
<g><path style="opacity:1" fill="#272323" d="M 77.5,154.5 C 78.552,154.351 79.552,154.517 80.5,155C 77.3113,155.981 76.978,157.314 79.5,159C 77.8339,161.48 77.0006,164.313 77,167.5C 76.7822,164.574 76.2822,161.74 75.5,159C 76.2666,157.53 76.9332,156.03 77.5,154.5 Z"/></g>
<g><path style="opacity:1" fill="#282424" d="M 82.5,156.5 C 83.3094,157.469 84.3094,158.302 85.5,159C 82.8333,161.667 82.8333,164.333 85.5,167C 84.552,167.483 83.552,167.649 82.5,167.5C 82.988,164.289 82.3213,161.456 80.5,159C 81.756,158.583 82.4226,157.75 82.5,156.5 Z"/></g>
<g><path style="opacity:1" fill="#2f2b2b" d="M 37.5,158.5 C 41.8926,158.457 42.2259,158.957 38.5,160C 35.5816,163.795 36.5816,166.128 41.5,167C 36.5036,167.664 34.6703,165.498 36,160.5C 36.7172,159.956 37.2172,159.289 37.5,158.5 Z"/></g>
<g><path style="opacity:1" fill="#302c2c" d="M 60.5,162.5 C 58.9827,159.505 59.9827,158.339 63.5,159C 61.5743,159.422 60.5743,160.589 60.5,162.5 Z"/></g>
<g><path style="opacity:1" fill="#494544" d="M 43.5,158.5 C 44.9403,159.363 46.2736,159.363 47.5,158.5C 47.8333,158.833 48.1667,159.167 48.5,159.5C 47.675,160.386 46.675,160.719 45.5,160.5C 45.8076,162.924 45.4742,165.257 44.5,167.5C 43.5159,164.572 43.1826,161.572 43.5,158.5 Z"/></g>
<g><path style="opacity:1" fill="#2e2a29" d="M 55.5,166.5 C 49.9973,168.494 48.164,166.494 50,160.5C 55.5187,157.334 57.852,159.001 57,165.5C 56.6174,166.056 56.1174,166.389 55.5,166.5 Z"/></g>
<g><path style="opacity:1" fill="#e6e4df" d="M 55.5,166.5 C 51.3228,167.158 49.8228,165.492 51,161.5C 53.5136,158.823 55.3469,159.323 56.5,163C 56.0109,164.138 55.6775,165.305 55.5,166.5 Z"/></g>
<g><path style="opacity:1" fill="#2f2b2b" d="M 26.5,158.5 C 26.2927,161.241 25.2927,163.574 23.5,165.5C 23.7073,162.759 24.7073,160.426 26.5,158.5 Z"/></g>
<g><path style="opacity:1" fill="#2d2929" d="M 68.5,159.5 C 71.8932,157.719 73.8932,158.886 74.5,163C 73.4904,167.337 70.9904,168.503 67,166.5C 64.7546,163.43 65.2546,161.096 68.5,159.5 Z"/></g>
<g><path style="opacity:1" fill="#efede8" d="M 68.5,159.5 C 72.4735,160.075 73.4735,162.242 71.5,166C 70.2161,166.684 69.0495,166.517 68,165.5C 67.3224,163.402 67.4891,161.402 68.5,159.5 Z"/></g>
<g><path style="opacity:1" fill="#272323" d="M 21.5,163.5 C 22.1667,164.167 22.8333,164.833 23.5,165.5C 23.631,166.239 23.4643,166.906 23,167.5C 21.8118,166.437 21.3118,165.103 21.5,163.5 Z"/></g>
<g><path style="opacity:1" fill="#2d2a29" d="M 60.5,162.5 C 63.7643,162.726 64.7643,164.226 63.5,167C 58.9986,167.663 58.6653,167.163 62.5,165.5C 61.8075,164.482 61.1408,163.482 60.5,162.5 Z"/></g>
<g><path style="opacity:1" fill="#292525" d="M 23.5,170.5 C 26.8599,170.616 30.1933,170.949 33.5,171.5C 33.6602,173.199 33.4935,174.866 33,176.5C 29.7041,174.696 26.2041,174.196 22.5,175C 18.2942,178.735 18.6275,182.068 23.5,185C 28.9763,187.471 32.643,191.471 34.5,197C 33.3016,202.944 29.6349,206.111 23.5,206.5C 21.1162,205.988 18.7828,205.321 16.5,204.5C 15.3691,202.926 15.2025,201.259 16,199.5C 20.1958,202.748 24.5291,203.081 29,200.5C 31.105,197.989 30.9383,195.656 28.5,193.5C 26.0072,191.42 23.3405,189.586 20.5,188C 13.3339,180.67 14.3339,174.837 23.5,170.5 Z"/></g>
<g><path style="opacity:1" fill="#272323" d="M 50.5,170.5 C 65.9811,171.08 72.1477,179.08 69,194.5C 67.2306,199.935 63.7306,203.768 58.5,206C 60.684,208.016 62.684,210.183 64.5,212.5C 62.9255,213.631 61.2588,213.798 59.5,213C 57.1667,210.667 54.8333,208.333 52.5,206C 42.5984,204.244 37.5984,198.244 37.5,188C 37.6286,178.865 41.9619,173.032 50.5,170.5 Z"/></g>
<g><path style="opacity:1" fill="#272323" d="M 110.5,170.5 C 113.518,170.704 116.518,171.037 119.5,171.5C 119.5,172.833 119.5,174.167 119.5,175.5C 116.201,174.624 112.868,174.457 109.5,175C 107.876,176.117 106.876,177.617 106.5,179.5C 107.559,182.068 109.226,184.235 111.5,186C 116.617,188.114 119.95,191.781 121.5,197C 120.198,202.797 116.531,205.964 110.5,206.5C 108.181,205.936 105.847,205.436 103.5,205C 102.424,203.274 102.257,201.441 103,199.5C 108.77,204.063 113.603,203.397 117.5,197.5C 117,196.5 116.5,195.5 116,194.5C 111.204,190.947 106.87,186.947 103,182.5C 101.718,176.053 104.218,172.053 110.5,170.5 Z"/></g>
<g><path style="opacity:1" fill="#242020" d="M 75.5,171.5 C 76.8333,171.5 78.1667,171.5 79.5,171.5C 79.5,181.5 79.5,191.5 79.5,201.5C 83.8333,201.5 88.1667,201.5 92.5,201.5C 92.5,202.833 92.5,204.167 92.5,205.5C 86.8333,205.5 81.1667,205.5 75.5,205.5C 75.5,194.167 75.5,182.833 75.5,171.5 Z"/></g>
<g><path style="opacity:1" fill="#f1efeb" d="M 49.5,174.5 C 57.5437,172.766 62.7104,175.766 65,183.5C 67.3185,192.267 64.4852,198.434 56.5,202C 50.035,203.018 45.535,200.518 43,194.5C 40.6116,186.094 42.7783,179.427 49.5,174.5 Z"/></g>
<g><path style="opacity:1" fill="#272323" d="M 131.5,180.5 C 141.661,179.663 145.995,184.33 144.5,194.5C 139.167,194.5 133.833,194.5 128.5,194.5C 130.174,202.689 134.84,204.689 142.5,200.5C 143.429,201.689 143.762,203.022 143.5,204.5C 126.998,207.834 121.164,201.501 126,185.5C 127.73,183.598 129.563,181.931 131.5,180.5 Z"/></g>
<g><path style="opacity:1" fill="#242020" d="M 157.5,180.5 C 158.833,180.5 160.167,180.5 161.5,180.5C 161.5,181.833 161.5,183.167 161.5,184.5C 157.818,183.725 155.318,185.059 154,188.5C 153.501,194.157 153.334,199.824 153.5,205.5C 152.167,205.5 150.833,205.5 149.5,205.5C 149.5,197.5 149.5,189.5 149.5,181.5C 150.833,181.5 152.167,181.5 153.5,181.5C 153.351,182.552 153.517,183.552 154,184.5C 154.69,182.65 155.856,181.316 157.5,180.5 Z"/></g>
<g><path style="opacity:1" fill="#282424" d="M 193.5,180.5 C 203.781,179.448 208.448,184.115 207.5,194.5C 201.833,194.5 196.167,194.5 190.5,194.5C 192.614,202.572 197.447,204.572 205,200.5C 205.783,202.433 205.283,203.933 203.5,205C 190,207.5 184.5,202 187,188.5C 188.305,185.039 190.471,182.372 193.5,180.5 Z"/></g>
<g><path style="opacity:1" fill="#252121" d="M 219.5,180.5 C 221.167,180.5 222.833,180.5 224.5,180.5C 224.5,181.833 224.5,183.167 224.5,184.5C 220.317,183.846 217.484,185.512 216,189.5C 215.501,194.823 215.334,200.156 215.5,205.5C 214.167,205.5 212.833,205.5 211.5,205.5C 211.5,197.5 211.5,189.5 211.5,181.5C 212.833,181.5 214.167,181.5 215.5,181.5C 215.351,182.552 215.517,183.552 216,184.5C 217.376,183.295 218.542,181.962 219.5,180.5 Z"/></g>
<g><path style="opacity:1" fill="#272323" d="M 163.5,182.5 C 164.919,181.549 166.585,181.216 168.5,181.5C 169.78,187.841 171.947,193.841 175,199.5C 177.069,193.794 179.235,188.128 181.5,182.5C 182.833,181.167 184.167,181.167 185.5,182.5C 183,188.833 180.5,195.167 178,201.5C 177.084,204.959 175.084,205.959 172,204.5C 169.433,196.95 166.6,189.616 163.5,182.5 Z"/></g>
<g><path style="opacity:1" fill="#a4a29e" d="M 225.5,181.5 C 226.94,182.363 228.274,182.363 229.5,181.5C 230.914,184.59 229.914,185.757 226.5,185C 225.663,183.989 225.33,182.822 225.5,181.5 Z"/></g>
<g><path style="opacity:1" fill="#f2f0eb" d="M 140.5,189.5 C 136.702,190.483 132.702,190.817 128.5,190.5C 129.625,184.908 132.958,183.074 138.5,185C 139.582,186.33 140.249,187.83 140.5,189.5 Z"/></g>
<g><path style="opacity:1" fill="#ebe9e5" d="M 195.5,183.5 C 199.585,183.582 202.252,185.582 203.5,189.5C 199.205,190.661 194.871,190.828 190.5,190C 191.594,187.273 193.26,185.107 195.5,183.5 Z"/></g>
<g><path style="opacity:1" fill="#7a7775" d="M 140.5,189.5 C 141.043,189.56 141.376,189.893 141.5,190.5C 137.016,191.811 132.683,191.811 128.5,190.5C 132.702,190.817 136.702,190.483 140.5,189.5 Z"/></g>
</svg>
